# Blender 4.0.2
# www.blender.org
mtllib dragon.mtl
o dragon
v 0.099565 0.417778 -0.404899
v 0.257203 0.255790 -0.321229
v 0.035687 0.324329 -0.127808
v -0.073543 0.521399 -0.246461
v 0.070747 0.512411 -0.326863
v 0.128197 0.457986 -0.259871
v -0.206546 0.318580 0.151436
v 0.377843 0.052169 -0.140032
v -0.255565 0.887799 0.136313
v -0.419923 0.272179 0.126962
v 0.143071 -0.002314 -0.301320
v -0.343196 0.691852 0.078815
v -0.094564 0.085682 0.466817
v -0.160516 0.634736 0.268246
v 0.337241 0.367687 -0.105813
v -0.142899 -0.000546 0.408683
v 0.077330 0.546756 -0.066906
v 0.342464 0.138292 -0.390264
v 0.071088 0.004949 0.202554
v -0.197303 0.771508 0.336604
v -0.013996 0.108659 -0.347986
v 0.032146 0.166402 -0.339743
v -0.334316 0.001116 -0.043535
v -0.511260 0.045465 0.220014
v 0.327226 0.610769 -0.448909
v 0.306244 0.477641 -0.406371
v -0.405122 0.742134 0.321243
v 0.288872 0.018498 -0.057674
v -0.193510 0.847413 0.039485
v -0.277045 0.877847 0.083505
v -0.519521 0.047537 0.150573
v -0.388479 0.045114 0.239398
v 0.222676 0.040580 -0.119704
v -0.084748 0.638096 -0.084135
v -0.228818 0.846869 0.022295
v -0.330647 0.850807 0.094457
v -0.248021 0.119368 -0.106937
v 0.081472 0.426717 -0.328899
v -0.019638 0.000665 0.154033
v 0.007142 0.024165 0.101610
v 0.012198 0.029766 0.093880
v 0.011707 0.130851 -0.027406
v -0.031065 0.756453 -0.041142
v 0.165098 0.711693 -0.296651
v -0.003541 0.144323 -0.299098
v 0.241225 0.183556 -0.173976
v 0.222632 0.216452 -0.270231
v -0.238260 0.245831 -0.095302
v -0.166537 0.134931 -0.097773
v -0.037154 0.098889 0.306714
v -0.144206 0.424352 -0.018333
v -0.270082 0.613584 0.514652
v -0.081864 0.166092 -0.124226
v -0.153101 0.574273 -0.042305
v 0.149371 0.085196 -0.089030
v -0.438966 0.081164 0.122603
v -0.190798 0.413054 0.067363
v 0.242069 0.017005 -0.340660
v 0.397923 0.240801 -0.348894
v 0.173819 0.085347 -0.069896
v -0.041549 0.014391 -0.413121
v 0.281063 0.070089 -0.052071
v 0.254044 0.090961 -0.089008
v -0.206294 0.735982 0.310394
v -0.350387 0.814875 0.446600
v -0.160928 0.846186 0.105486
v -0.178118 0.039469 0.331472
v 0.263159 0.036388 -0.113722
v -0.008992 0.139672 0.126204
v -0.265115 0.663871 -0.126863
v 0.372345 0.007840 -0.429745
v -0.465342 0.625272 0.482632
v -0.048964 0.034371 0.430367
v -0.337415 0.532922 0.129472
v 0.511150 0.067472 -0.283487
v -0.095700 0.654232 0.027166
v 0.018399 0.304665 0.048721
v -0.320972 0.835658 -0.014295
v -0.091329 0.193738 0.320247
v 0.337051 0.186493 -0.287435
v 0.045706 0.103588 -0.333037
v -0.261301 -0.001331 -0.073688
v 0.346626 0.218692 -0.152490
v 0.065824 0.301496 -0.192437
v 0.406113 0.305238 -0.072384
v 0.191996 0.510200 -0.456461
v -0.258037 0.662785 0.375829
v -0.230064 0.692422 0.275728
v -0.285007 0.693775 0.406400
v 0.460809 0.548092 -0.524098
v -0.369362 0.670659 0.369745
v -0.116490 0.910491 0.075647
v -0.211105 0.929155 0.059140
v -0.200385 0.276441 -0.091647
v -0.283648 0.613856 0.003639
v -0.084477 0.094779 0.268351
v -0.412627 0.730556 0.558085
v 0.145370 -0.002858 -0.161975
v -0.450992 0.783024 0.394754
v -0.425478 0.734446 0.252751
v 0.308163 0.178692 -0.169482
v -0.132095 0.505368 -0.013788
v -0.171887 0.842682 0.201630
v -0.002054 0.068919 -0.457399
v 0.497255 0.666891 -0.506365
v 0.038436 0.108815 0.164271
v -0.232125 0.249351 -0.024576
v -0.267289 0.840326 -0.138357
v -0.258768 0.763781 0.410491
v -0.435739 0.185766 0.306570
v -0.266363 0.658087 -0.035717
v -0.240052 0.975142 0.067035
v -0.320350 0.695706 -0.029233
v 0.412745 0.306960 -0.153022
v -0.399198 0.414950 0.239848
v -0.539055 0.092908 0.183840
v -0.513369 0.089402 0.210056
v -0.220649 0.086663 -0.104502
v -0.421680 0.125384 0.147437
v 0.325624 0.082978 -0.412037
v 0.313604 0.495258 -0.482281
v -0.253212 0.665562 -0.060222
v -0.245826 0.706979 -0.052984
v 0.198175 0.325323 -0.200594
v 0.008100 0.728465 -0.178442
v 0.541234 0.187453 -0.292690
v -0.156476 0.905136 -0.108796
v 0.077310 0.101652 0.150435
v 0.060393 0.070994 0.207684
v 0.215651 0.089139 0.046795
v -0.266989 0.802665 -0.079418
v -0.291705 0.534621 0.234960
v 0.140536 0.230360 -0.372648
v -0.392995 0.317624 0.183169
v -0.030061 0.123504 -0.405733
v -0.010432 0.172197 -0.364356
v -0.151714 0.587960 -0.008928
v -0.091471 0.516199 -0.022946
v -0.367075 0.896095 0.374400
v 0.152625 0.090497 0.011405
v -0.137591 0.269474 0.341186
v -0.329361 0.913386 -0.018933
v 0.410525 0.001408 -0.196320
v -0.008380 0.060683 -0.395923
v -0.553225 0.035361 0.218913
v -0.158222 0.139416 0.394060
v -0.082040 0.843166 0.050316
v -0.310046 0.746201 -0.044159
v 0.376342 0.492972 -0.448912
v 0.016684 0.127345 -0.378573
v 0.386653 0.602967 -0.423341
v 0.299087 0.290249 -0.130190
v 0.297633 0.409478 -0.410480
v 0.314525 0.532899 -0.420226
v 0.298904 0.577092 -0.431923
v -0.192990 0.449646 0.282274
v -0.158883 0.732504 -0.005921
v -0.170997 0.025997 0.112741
v 0.047388 0.462032 -0.217476
v -0.001877 0.095227 -0.265707
v -0.145976 0.613828 0.155103
v -0.114469 0.651082 0.034587
v 0.362018 0.643735 -0.460878
v -0.336676 0.785052 0.010451
v -0.301783 0.790830 -0.076819
v -0.011548 0.216550 0.118627
v -0.337771 0.638063 0.180942
v -0.421856 0.725610 0.501100
v 0.108470 0.035804 -0.065050
v -0.196864 0.722146 0.206326
v 0.375048 0.003474 -0.325451
v -0.133759 0.005034 0.242353
v -0.479294 0.050695 0.261348
v -0.052896 0.024412 0.324712
v -0.055492 0.075951 -0.346564
v -0.407722 0.685052 0.483945
v 0.136578 0.508947 -0.221217
v -0.401422 0.800757 0.414749
v -0.002203 0.069379 0.316796
v 0.029284 0.149246 0.050869
v 0.148914 0.032239 -0.012974
v -0.152644 0.396986 0.036103
v -0.259144 0.762463 -0.150278
v 0.327278 0.200555 -0.159233
v -0.200720 0.332977 0.114647
v 0.352912 0.316579 -0.177230
v -0.431874 0.215502 0.231112
v -0.350604 0.379451 0.145244
v -0.411398 0.624661 0.315203
v -0.264052 0.819845 0.432689
v -0.165661 0.499372 -0.004131
v -0.259309 0.128681 -0.001374
v -0.322626 0.852327 0.421473
v 0.405449 0.617614 -0.515875
v 0.110789 0.143331 -0.395695
v -0.202222 0.182367 0.378319
v -0.334895 0.674361 0.219808
v -0.375669 0.783420 0.256557
v -0.401505 0.833303 0.224749
v 0.389296 0.371316 -0.347201
v -0.346634 0.860947 0.269227
v -0.311403 0.022131 0.336944
v 0.350429 0.553907 -0.506469
v -0.230298 0.920746 0.043891
v 0.000729 0.081431 -0.415712
v -0.323974 0.625324 0.038011
v -0.369594 0.858094 0.029282
v -0.475055 0.833981 0.425560
v 0.405821 0.202760 -0.100958
v -0.126072 0.308627 0.065848
v -0.176682 0.303115 0.084503
v 0.371820 0.016022 -0.071359
v 0.305014 0.102875 -0.349488
v -0.409166 0.217966 0.367133
v 0.273407 0.007204 -0.439834
v -0.301173 0.631125 0.126270
v -0.097893 0.636656 0.075400
v -0.263317 0.499046 0.286567
v -0.389493 0.122884 0.177270
v -0.459699 0.582640 0.402424
v 0.420195 0.507673 -0.497034
v 0.066630 0.158716 0.115418
v 0.314830 0.221767 -0.077542
v -0.372132 0.070597 0.158931
v 0.289194 0.477953 -0.177228
v -0.099034 0.132302 0.434344
v -0.117839 0.841174 0.107290
v 0.364009 0.173557 -0.134955
v -0.053139 0.143795 0.468106
v 0.182898 0.068119 0.020196
v -0.024216 0.703304 -0.152128
v -0.095672 0.790944 0.084260
v -0.048751 0.698063 -0.128775
v -0.373168 0.840657 0.169964
v -0.143196 0.468105 0.009174
v 0.458700 0.601342 -0.495148
v -0.104560 0.974831 -0.176817
v -0.413699 0.872081 0.439740
v -0.364792 0.591790 0.156057
v -0.212128 0.993942 0.015014
v 0.233823 0.036117 0.050674
v 0.043098 0.005299 0.088769
v -0.186682 0.813995 0.246388
v 0.105338 0.753175 -0.282960
v -0.405823 0.666449 0.383936
v -0.425373 0.676435 0.401437
v -0.079952 0.716244 0.077199
v -0.054370 0.664449 -0.019241
v -0.429972 0.822403 0.369230
v -0.223732 0.260149 0.111478
v -0.039204 0.021129 0.145769
v 0.136057 0.055132 -0.093947
v -0.229133 0.699782 0.231898
v -0.279355 0.707816 0.210176
v -0.164023 0.881190 -0.052813
v 0.060930 0.111595 0.064857
v -0.092563 0.606417 -0.205257
v -0.342403 0.724281 0.080771
v 0.111384 0.053091 0.115788
v -0.252298 0.007067 0.030106
v -0.296095 0.631112 -0.044326
v 0.080701 0.207975 -0.403486
v -0.422140 0.102489 0.268244
v -0.468074 0.092196 0.251903
v -0.173533 0.468111 0.070519
v -0.358621 0.823101 0.314228
v 0.261474 0.186124 -0.284427
v 0.299537 0.420318 -0.290716
v -0.285972 0.083741 0.394701
v -0.377000 0.125701 0.377584
v 0.105103 0.055253 -0.037673
v 0.187564 0.730407 -0.348560
v 0.246240 0.668515 -0.395557
v 0.217456 0.702578 -0.375368
v -0.381016 0.606378 0.285243
v -0.376441 0.802916 0.129906
v -0.347246 0.814344 0.059392
v 0.072657 0.745570 -0.252892
v -0.256707 0.803150 0.334223
v 0.020443 0.421192 -0.205836
v 0.475581 0.367175 -0.410790
v -0.222771 0.842512 0.296709
v -0.034074 0.170032 0.367132
v 0.316310 0.145868 -0.149071
v 0.107898 0.382558 -0.228443
v 0.333496 0.163140 -0.149572
v -0.259840 0.611533 0.444126
v 0.263640 0.374797 -0.155669
v -0.170734 0.461481 0.025933
v 0.151848 0.070493 -0.120829
v -0.348309 0.604125 0.144676
v 0.431107 0.637745 -0.464637
v -0.324765 0.775540 0.329294
v 0.096962 0.114368 -0.431360
v -0.091536 0.251807 0.222206
v -0.054715 0.286027 0.106763
v -0.140719 0.736878 0.169367
v 0.300359 0.336263 -0.156266
v 0.312248 0.446929 -0.392307
v -0.040182 0.840513 -0.037247
v -0.380039 0.702799 0.220130
v -0.084970 0.721306 0.007342
v -0.293295 0.835082 0.011670
v 0.009341 0.021166 -0.432714
v -0.284014 0.135742 -0.068199
v -0.010435 0.016782 0.329280
v -0.179556 0.434356 0.044646
v 0.081579 0.339674 -0.213175
v -0.203052 0.707157 0.271522
v -0.303444 0.700849 0.230474
v 0.490811 0.575973 -0.543248
v -0.284778 0.817989 0.300172
v -0.346966 0.341474 0.381693
v 0.033373 0.745989 -0.213342
v -0.173197 0.783907 -0.033550
v -0.401069 0.732792 0.352823
v -0.116177 0.634158 0.120074
v -0.442757 0.603251 0.390313
v -0.306912 0.770694 0.435584
v 0.009732 0.261812 -0.123742
v -0.298056 0.200454 0.421396
v -0.505616 0.111165 0.245082
v -0.420347 0.762996 0.399888
v -0.160438 0.636304 -0.047337
v 0.136335 0.075248 -0.027970
v -0.170446 0.330697 0.067919
v -0.197930 0.373368 0.095928
v 0.320813 0.332447 -0.177621
v -0.341352 0.062897 -0.024315
v -0.160378 0.688222 -0.057117
v -0.263797 0.704522 0.243734
v -0.049322 0.235081 0.268479
v 0.506364 0.242951 -0.403177
v 0.359639 0.663140 -0.416013
v -0.300664 0.665877 0.384399
v 0.146798 0.691450 -0.184446
v -0.303617 0.865741 0.291349
v 0.152956 0.740227 -0.323993
v -0.313193 0.096775 -0.020313
v 0.001297 0.041025 0.355982
v 0.274000 0.628724 -0.416112
v 0.296464 0.270882 -0.148765
v 0.216874 0.115051 -0.406241
v -0.201951 0.741255 0.212333
v 0.000429 0.046017 0.095037
v 0.071136 0.243453 -0.373479
v 0.293776 0.340488 -0.124639
v 0.012168 0.029048 0.093000
v 0.017857 0.041024 0.089064
v -0.318029 0.441937 0.336097
v -0.144403 0.628100 0.197500
v 0.175687 0.015953 0.078228
v 0.312637 0.171088 -0.147497
v 0.375709 0.239510 -0.318437
v 0.122792 0.030704 0.013505
v -0.053563 0.067597 -0.038466
v 0.304262 0.252369 -0.149564
v -0.214311 0.862560 0.226655
v 0.279683 0.253248 -0.138532
v -0.188244 0.644593 0.221237
v 0.316167 0.373693 -0.373480
v -0.243729 0.712818 0.212294
v 0.284602 0.306925 -0.355308
v 0.377585 0.216916 -0.053648
v -0.413212 0.329629 0.322730
v 0.222145 0.252881 -0.224196
v -0.306501 0.003004 0.243674
v -0.294296 0.691242 0.291342
v 0.213155 0.063796 -0.108655
v -0.302981 0.668486 0.406851
v -0.358657 0.756179 0.079203
v -0.409471 0.691411 0.358101
v -0.109521 0.349417 -0.191292
v -0.313347 0.635313 0.176719
v 0.322277 0.295962 -0.154203
v -0.166092 0.732700 -0.047185
v -0.132719 0.777254 0.163600
v -0.383123 0.662079 0.373725
v 0.126286 0.081817 -0.083507
v -0.055086 0.002103 0.065954
v -0.396888 0.652206 0.513161
v -0.319190 0.863626 0.487073
v 0.115811 0.170275 -0.102705
v -0.398196 0.662932 0.404127
v -0.302756 0.665535 0.507784
v -0.328453 0.641711 0.545130
v 0.421696 0.084518 -0.385147
v -0.225454 0.618877 0.378867
v -0.330483 0.691446 0.178323
v 0.053296 0.201013 -0.154666
v 0.172009 0.217312 -0.154980
v 0.092286 0.265200 -0.165338
v -0.280889 0.750022 0.189255
v -0.288625 0.736591 0.414915
v 0.284940 0.364205 -0.178304
v -0.241946 0.617881 0.184944
v 0.034276 0.693997 -0.313951
v 0.265258 0.420850 -0.178863
v 0.290868 0.509731 -0.438734
v -0.159133 0.528439 -0.021955
v 0.187545 0.042249 0.029107
v -0.395061 0.864482 0.406316
v 0.062601 0.032276 -0.180351
v 0.302969 0.135787 -0.128650
v -0.119258 0.566477 -0.038924
v -0.002982 0.257185 -0.284355
v -0.297740 0.758365 0.277688
v 0.332900 0.405570 -0.382479
v -0.389398 0.674279 0.348804
v 0.253127 0.565379 -0.238239
v 0.135395 0.641465 -0.410613
v 0.186681 0.055466 -0.093194
v -0.145752 0.846837 0.174396
v -0.011130 0.427629 0.035647
v -0.123644 0.613089 0.146253
v -0.174351 -0.001453 -0.002246
v -0.290574 0.754158 0.226402
v 0.354400 0.229005 -0.157652
v -0.309537 0.223663 0.077406
v 0.055186 0.159228 -0.145566
v 0.308808 0.074936 -0.098736
v 0.016269 0.628295 -0.339375
v 0.306412 0.088815 -0.117417
v 0.353071 0.312624 -0.353038
v 0.114176 0.069543 -0.411399
v -0.155380 0.313001 0.298404
v -0.424350 0.686476 0.431713
v 0.167829 0.384327 -0.439879
v 0.064561 0.673924 -0.116802
v -0.144664 0.805639 0.042807
v -0.481726 0.039782 0.304192
v 0.051981 0.301314 -0.005751
v 0.342959 0.130714 -0.121306
v -0.104567 0.325135 0.075887
v -0.303166 0.342422 0.121681
v -0.348741 0.819547 0.415584
v -0.160769 0.447272 -0.127982
v -0.387766 0.662819 0.348007
v 0.435117 0.181105 -0.202000
v 0.095599 0.569152 -0.404612
v -0.268410 0.512045 0.016646
v -0.040685 0.137038 -0.289922
v -0.305140 0.685629 0.460235
v 0.009554 0.587689 -0.037225
v -0.297392 0.712086 0.178017
v 0.415906 0.685898 -0.452099
v -0.162662 0.620461 0.239783
v 0.237449 0.601227 -0.425903
v -0.529734 0.034637 0.274575
v 0.052148 0.243957 -0.165128
v 0.153056 0.591760 -0.151489
v -0.192211 0.613539 0.300899
v -0.202276 0.309606 -0.056122
v -0.385463 0.592296 0.315305
v -0.258408 0.286998 0.401347
v -0.304433 0.674335 0.435843
v 0.292530 0.051667 -0.113501
v -0.337630 0.716268 0.151171
v 0.000936 0.161359 -0.323344
v 0.252167 0.485395 -0.176366
v 0.524297 0.248284 -0.284151
v 0.248421 0.030637 -0.224353
v 0.373919 0.277811 -0.161220
v -0.452391 0.215538 0.130862
v -0.094844 0.789545 0.006155
v 0.218481 0.224613 -0.210541
v 0.351073 0.187611 -0.143645
v 0.088643 0.487788 -0.239564
v -0.214960 0.643746 0.264852
v -0.328473 0.682364 0.401450
v 0.421825 0.245384 -0.419159
v -0.148969 0.460307 0.187080
v 0.020812 0.228224 0.117701
v -0.004286 0.311875 -0.162537
v 0.107252 0.162899 -0.129200
v 0.239616 0.662286 -0.266332
v 0.300722 0.559966 -0.316383
v 0.430438 0.398703 -0.356177
v -0.187614 0.866063 -0.016675
v 0.317484 0.274559 -0.091782
v -0.312903 0.009585 0.144912
v 0.475306 0.100123 -0.186016
v -0.018290 0.268253 -0.148876
v -0.195737 0.116345 0.384675
v 0.349708 0.277755 -0.164876
v 0.396715 0.142901 -0.365528
v -0.248743 0.630056 0.309518
v 0.085774 0.472344 -0.094948
v -0.283746 0.694117 0.268222
v -0.365425 0.651773 0.308235
v -0.288717 0.627991 0.172313
v -0.393190 0.692175 0.434515
v 0.437292 0.312395 -0.445497
v 0.313421 0.112659 -0.127026
v 0.248280 0.088150 -0.108085
v -0.344892 0.698903 0.483000
v -0.330331 0.739138 0.194494
v 0.355788 0.255519 -0.155877
v -0.312612 0.615818 0.106164
v -0.289492 0.770706 0.358278
vn 0.3655 -0.8693 0.3328
vn 0.0941 -0.9870 0.1301
vn -0.1893 -0.8822 0.4312
vn -0.7582 0.6390 -0.1296
vn -0.2637 0.8645 -0.4279
vn -0.8096 0.2360 0.5374
vn 0.3104 0.0511 -0.9492
vn -0.0447 0.8593 -0.5096
vn 0.2792 0.6261 -0.7280
vn 0.0954 0.8426 0.5300
vn 0.9328 0.3464 -0.0998
vn 0.5979 0.8009 -0.0316
vn 0.5085 0.0256 -0.8607
vn 0.8036 0.5034 0.3174
vn 0.9628 -0.1724 -0.2082
vn 0.0036 -0.7041 -0.7101
vn -0.1046 -0.9390 0.3275
vn 0.3188 -0.9447 0.0765
vn -0.3999 0.7236 -0.5626
vn -0.5578 0.5623 -0.6105
vn -0.2615 0.6860 -0.6790
vn -0.0149 -0.9977 -0.0658
vn 0.4714 -0.4436 -0.7622
vn -0.6000 -0.1901 -0.7771
vn -0.3117 0.7834 0.5378
vn -0.2274 0.6173 0.7532
vn 0.4504 0.5157 0.7288
vn 0.7641 0.5515 0.3348
vn 0.8090 0.5275 0.2595
vn 0.7885 0.3349 0.5158
vn 0.5492 -0.6795 0.4865
vn -0.6672 0.1352 -0.7325
vn -0.7993 -0.4792 -0.3627
vn -0.5656 -0.3159 -0.7618
vn -0.3191 -0.9361 0.1481
vn -0.4201 -0.5328 -0.7347
vn -0.9759 0.2076 -0.0678
vn -0.5388 0.5235 0.6600
vn -0.5745 0.5342 0.6201
vn -0.4395 -0.8982 0.0034
vn 0.0971 -0.7379 -0.6679
vn 0.7281 0.5860 0.3556
vn 0.5649 0.6585 -0.4972
vn 0.5413 0.7649 0.3492
vn -0.5358 -0.1993 -0.8205
vn -0.3999 -0.3682 -0.8393
vn -0.2247 -0.4803 -0.8479
vn 0.1359 0.1640 -0.9771
vn -0.1549 -0.1220 -0.9804
vn 0.8435 0.2196 -0.4902
vn 0.1553 0.9735 -0.1681
vn -0.2537 0.9498 -0.1831
vn -0.3753 0.9028 -0.2100
vn -0.8599 -0.2007 -0.4693
vn -0.5825 0.3127 -0.7503
vn 0.3105 -0.9114 0.2700
vn 0.0822 -0.8015 0.5924
vn 0.8627 -0.0838 0.4988
vn 0.8974 0.4413 -0.0058
vn 0.8998 0.1361 0.4146
vn 0.4187 0.8840 0.2079
vn -0.6044 -0.6704 -0.4304
vn 0.2063 -0.7933 -0.5728
vn -0.0847 -0.9928 -0.0842
vn 0.8330 -0.5506 0.0543
vn 0.0528 -0.2375 -0.9700
vn 0.3771 0.0408 -0.9253
vn -0.2123 -0.9745 0.0722
vn -0.2544 -0.8186 0.5149
vn -0.0639 -0.8903 -0.4509
vn -0.4697 -0.8596 -0.2014
vn -0.6348 0.0107 0.7726
vn -0.5727 0.1571 0.8046
vn -0.4029 0.6327 -0.6614
vn -0.8555 0.4584 0.2408
vn -0.8885 0.4433 -0.1188
vn -0.6450 0.6227 -0.4429
vn -0.3813 0.1750 -0.9077
vn -0.4320 0.8399 -0.3285
vn 0.5135 0.7981 -0.3153
vn 0.9542 0.2196 -0.2030
vn 0.2477 0.3406 -0.9070
vn 0.3403 0.6390 0.6898
vn 0.5771 0.6107 0.5422
vn 0.8062 0.2435 0.5392
vn 0.3643 0.6876 -0.6281
vn -0.6901 0.5219 -0.5013
vn -0.8689 -0.3912 0.3034
vn -0.8844 0.1582 0.4391
vn -0.1151 0.8167 -0.5655
vn 0.0620 0.6406 -0.7653
vn -0.2260 0.6922 0.6854
vn -0.6065 0.4871 0.6284
vn -0.1386 0.9722 0.1885
vn 0.8426 -0.0173 -0.5383
vn 0.5636 -0.7865 -0.2524
vn -0.4879 0.0389 -0.8720
vn -0.7354 0.0184 0.6773
vn -0.6051 -0.3554 0.7125
vn -0.0416 -0.0045 0.9991
vn -0.3608 0.7340 0.5754
vn -0.2526 -0.1686 0.9528
vn -0.9532 0.2857 -0.0984
vn 0.9899 -0.1095 0.0905
vn 0.5715 -0.6212 0.5362
vn 0.8566 0.1389 0.4970
vn 0.7871 0.4036 0.4665
vn -0.4239 0.9041 0.0534
vn -0.3721 0.9257 -0.0670
vn -0.9118 0.0839 -0.4021
vn 0.6592 -0.0737 0.7483
vn 0.3901 -0.2252 0.8928
vn 0.1933 -0.9404 -0.2797
vn -0.4180 -0.9068 0.0539
vn -0.6997 -0.5892 0.4041
vn 0.7617 -0.6087 -0.2220
vn 0.0505 -0.9961 0.0720
vn 0.2161 0.0524 -0.9750
vn -0.9163 -0.0234 -0.3999
vn -0.8448 0.0521 -0.5326
vn 0.1272 0.5369 0.8340
vn 0.4172 0.8568 -0.3029
vn -0.0488 -0.3155 -0.9477
vn 0.5371 -0.2897 -0.7922
vn 0.4626 -0.4785 -0.7463
vn -0.8480 -0.4087 0.3374
vn -0.7154 -0.3411 0.6099
vn 0.3599 0.1937 0.9127
vn 0.9938 -0.0895 0.0655
vn 0.3175 0.0318 0.9477
vn -0.3632 -0.0847 -0.9279
vn -0.7965 0.3426 -0.4982
vn -0.7463 -0.0584 -0.6630
vn -0.9658 0.2508 0.0655
vn -0.6294 0.4162 0.6562
vn -0.6517 0.4355 0.6210
vn 0.7554 -0.5307 0.3843
vn 0.7299 -0.5885 0.3477
vn 0.1747 -0.9705 -0.1661
vn 0.2510 -0.5175 -0.8180
vn 0.3114 -0.2535 -0.9158
vn 0.9756 -0.1149 -0.1870
vn -0.2909 -0.7336 0.6141
vn 0.2149 0.4806 0.8502
vn 0.7864 0.4401 0.4333
vn 0.9958 -0.0108 0.0904
vn -0.8160 0.0593 0.5751
vn -0.3066 0.9112 0.2750
vn 0.0473 0.9757 0.2141
vn 0.8803 0.3267 0.3440
vn -0.6473 0.4977 -0.5773
vn -0.5271 0.6589 -0.5366
vn -0.7424 0.3497 0.5714
vn -0.5592 0.1961 0.8055
vn -0.5287 -0.5558 0.6415
vn 0.1609 -0.9433 -0.2904
vn -0.2753 -0.6585 -0.7005
vn 0.5861 -0.7966 -0.1477
vn -0.6693 0.7197 -0.1846
vn -0.4430 0.8807 0.1674
vn -0.3820 -0.9214 0.0713
vn 0.0740 -0.9374 0.3402
vn -0.4385 0.8158 0.3770
vn 0.3151 0.9200 0.2331
vn 0.4457 0.8202 -0.3586
vn 0.4992 0.8221 -0.2738
vn -0.2258 -0.1087 -0.9681
vn -0.1171 -0.2904 -0.9497
vn 0.2497 -0.2302 -0.9406
vn -0.5407 -0.1412 0.8293
vn -0.0525 0.6431 0.7640
vn -0.0205 0.4189 0.9078
vn 0.2847 0.3427 0.8953
vn -0.5677 -0.5284 -0.6313
vn 0.7340 -0.5578 0.3875
vn -0.1769 0.0170 -0.9841
vn 0.6243 0.0332 -0.7805
vn 0.0667 0.5188 -0.8523
vn -0.2277 0.8495 -0.4759
vn -0.8298 0.5578 0.0160
vn -0.0042 0.9156 -0.4020
vn -0.6464 -0.6344 0.4238
vn -0.9193 -0.3901 -0.0524
vn -0.1361 0.9072 0.3982
vn 0.3223 0.5857 0.7437
vn 0.3969 0.9178 -0.0057
vn 0.5310 0.7858 0.3169
vn 0.1819 0.9745 0.1314
vn -0.7723 0.6317 -0.0674
vn -0.8788 0.4762 0.0291
vn -0.7163 -0.1720 0.6763
vn -0.5994 -0.7982 -0.0604
vn -0.3735 0.9218 0.1039
vn 0.9272 -0.3635 0.0901
vn 0.1866 -0.9058 0.3803
vn -0.1659 -0.8840 -0.4370
vn -0.1712 -0.9375 -0.3028
vn -0.2167 -0.5924 -0.7759
vn -0.6074 -0.4900 -0.6253
vn -0.9846 0.0220 -0.1735
vn 0.1971 -0.2908 -0.9363
vn 0.9514 -0.2341 -0.1999
vn -0.1715 -0.9689 -0.1785
vn -0.1453 -0.9801 0.1353
vn -0.2198 -0.9617 0.1635
vn -0.8141 0.5687 0.1176
vn 0.1846 0.4814 0.8568
vn -0.4040 0.8780 0.2567
vn -0.5253 -0.3070 -0.7936
vn -0.3962 0.2837 -0.8732
vn -0.7607 -0.6073 0.2290
vn 0.8787 0.3579 -0.3159
vn -0.1134 -0.9687 0.2210
vn -0.2847 -0.4628 0.8395
vn 0.3859 0.9074 0.1664
vn 0.8156 0.3730 0.4424
vn 0.5211 0.5220 0.6753
vn 0.3898 -0.5186 0.7610
vn 0.9100 -0.2230 0.3495
vn 0.5875 0.7753 0.2319
vn -0.4118 0.7245 0.5528
vn 0.2745 0.5557 0.7847
vn 0.3416 0.9337 -0.1072
vn -0.0020 0.7082 -0.7060
vn -0.2969 -0.3328 -0.8950
vn -0.3431 -0.7885 0.5105
vn 0.2891 0.8984 0.3306
vn 0.2207 0.9706 -0.0960
vn 0.4261 -0.8929 0.1457
vn 0.5977 -0.7734 0.2113
vn -0.3178 -0.6694 0.6715
vn -0.1714 0.7633 0.6229
vn -0.9136 0.3498 -0.2073
vn -0.4805 0.7607 0.4364
vn -0.7392 -0.3088 -0.5985
vn -0.4631 -0.0162 -0.8862
vn 0.0183 0.3153 -0.9488
vn 0.2635 0.7460 0.6116
vn 0.6086 0.4153 0.6761
vn -0.3136 -0.9421 -0.1184
vn 0.1173 0.5869 0.8011
vn 0.5517 -0.1395 -0.8223
vn -0.6397 0.7293 -0.2426
vn -0.2351 -0.9335 -0.2706
vn 0.5477 0.3233 0.7717
vn 0.9568 0.2381 0.1670
vn -0.8463 -0.0698 0.5280
vn -0.4918 0.3280 0.8066
vn -0.8618 -0.1845 -0.4725
vn -0.9365 -0.1801 -0.3010
vn -0.5209 0.4990 0.6926
vn -0.7713 0.2054 -0.6025
vn -0.9386 0.3418 -0.0474
vn -0.2469 0.6059 0.7563
vn 0.2801 0.2754 0.9196
vn 0.6338 -0.5589 -0.5347
vn 0.9189 -0.3937 0.0236
vn -0.0159 0.9639 0.2658
vn -0.2469 0.9232 0.2944
vn 0.0702 0.9930 0.0954
vn 0.1213 0.2005 0.9722
vn -0.1993 0.3265 0.9239
vn 0.4666 0.7787 0.4195
vn -0.2277 0.4907 -0.8411
vn 0.2836 0.9345 0.2153
vn 0.5270 -0.4148 -0.7418
vn 0.4196 -0.3982 -0.8157
vn 0.1722 -0.4793 -0.8606
vn 0.4371 -0.5565 -0.7066
vn -0.0593 -0.6573 -0.7513
vn -0.2287 -0.8892 -0.3962
vn 0.9088 -0.1885 0.3723
vn -0.5357 0.8012 -0.2667
vn -0.7768 0.5613 0.2855
vn -0.6724 -0.0971 0.7338
vn -0.5621 0.1180 -0.8186
vn -0.0870 -0.2271 -0.9700
vn -0.5298 0.1794 -0.8289
vn -0.4316 -0.8113 0.3945
vn 0.5585 -0.3765 -0.7391
vn 0.5443 0.6127 0.5730
vn 0.2703 0.4700 0.8403
vn -0.1102 0.9302 -0.3500
vn 0.0342 -0.6658 -0.7453
vn -0.2099 -0.1696 0.9629
vn -0.1980 0.5692 0.7980
vn 0.3560 0.1697 0.9189
vn -0.3394 -0.2134 0.9161
vn -0.4377 -0.7577 -0.4841
vn -0.7729 -0.5629 -0.2929
vn -0.0906 0.6302 -0.7712
vn -0.1417 -0.1223 -0.9823
vn 0.8928 0.2869 0.3473
vn 0.8839 0.3326 0.3288
vn -0.8735 0.3040 0.3801
vn -0.9719 -0.0927 0.2166
vn 0.9160 -0.0708 0.3949
vn 0.3888 0.2067 0.8978
vn 0.2601 -0.9580 -0.1209
vn -0.3870 -0.2023 -0.8996
vn -0.0122 -0.3593 -0.9331
vn 0.7804 0.2884 0.5547
vn 0.7234 -0.5806 -0.3737
vn 0.9082 -0.1006 -0.4063
vn -0.4983 0.8016 -0.3304
vn -0.3812 -0.3539 -0.8541
vn -0.6011 -0.7105 0.3659
vn -0.2719 -0.8941 -0.3559
vn -0.2771 0.6139 -0.7391
vn -0.6373 -0.0052 -0.7706
vn -0.9701 0.2234 0.0946
vn 0.9426 -0.2587 0.2112
vn 0.4828 -0.5949 0.6426
vn 0.5155 -0.7342 -0.4419
vn -0.9441 -0.3120 -0.1068
vn -0.2628 0.1770 0.9485
vn -0.4690 0.7824 0.4097
vn 0.3078 -0.0872 0.9475
vn -0.5498 0.5576 0.6220
vn -0.6956 0.4633 0.5491
vn -0.2104 -0.6453 -0.7344
vn -0.7231 0.6190 -0.3064
vn 0.4646 -0.2554 -0.8479
vn 0.5876 0.3045 -0.7496
vn 0.5953 0.3936 0.7006
vn 0.4416 0.4176 -0.7941
vn -0.6723 0.4818 -0.5621
vn -0.5469 0.6599 -0.5153
vn -0.6810 0.5318 -0.5035
vn -0.9562 0.0913 -0.2781
vn -0.0311 0.4044 -0.9140
vn 0.6105 -0.5790 -0.5404
vn 0.5360 -0.5682 -0.6244
vn -0.5309 0.7153 -0.4543
vn 0.9639 -0.0703 0.2568
vn 0.7681 0.5966 -0.2327
vn -0.8011 -0.2696 0.5344
vn -0.0202 -0.2276 0.9736
vn 0.7434 -0.0770 -0.6644
vn 0.2298 -0.1307 -0.9644
vn 0.8294 0.4363 -0.3489
vn 0.0221 0.8636 0.5036
vn -0.5573 -0.5772 0.5969
vn -0.6718 -0.5000 0.5466
vn -0.4288 -0.8706 0.2412
vn -0.3589 0.3586 0.8617
vn 0.0021 -0.5110 0.8596
vn -0.5876 0.2835 0.7578
vn -0.0854 0.3924 0.9158
vn 0.0696 0.7576 0.6490
vn -0.7583 -0.5387 0.3671
vn -0.1485 -0.9771 0.1521
vn -0.0986 0.0381 -0.9944
vn 0.7588 0.0495 -0.6494
vn -0.2046 0.7262 0.6564
vn -0.3766 0.8605 -0.3432
vn -0.0415 0.6876 0.7249
vn 0.4892 -0.7078 0.5096
vn 0.6716 0.0458 0.7395
vn -0.1207 -0.1314 -0.9840
vn 0.3858 -0.2244 -0.8949
vn -0.8784 -0.2300 -0.4189
vn -0.9352 0.2279 -0.2711
vn 0.6036 -0.3921 -0.6942
vn 0.3513 -0.3587 -0.8648
vn -0.2238 -0.7202 0.6566
vn 0.1187 -0.9901 0.0751
vn 0.7541 0.2657 0.6006
vn 0.5459 0.5438 0.6374
vn 0.5447 0.4239 0.7237
vn -0.6536 0.4897 0.5770
vn 0.9063 -0.2994 0.2983
vn 0.5977 -0.7928 -0.1191
vn 0.9449 -0.2904 0.1510
vn -0.5727 0.6895 -0.4434
vn -0.9604 -0.2608 -0.0981
vn -0.3259 0.9445 -0.0428
vn 0.4327 -0.6584 -0.6158
vn 0.3566 -0.9201 -0.1622
vn -0.2177 -0.9116 -0.3486
vn 0.2951 0.5726 -0.7649
vn 0.1216 0.6815 -0.7216
vn -0.3078 0.9426 -0.1297
vn -0.4153 -0.8322 0.3673
vn -0.5424 0.8105 0.2212
vn -0.3852 -0.9059 -0.1759
vn -0.8666 0.3699 -0.3348
vn -0.9469 0.1929 -0.2571
vn 0.4261 -0.8832 0.1962
vn -0.0883 -0.9558 0.2805
vn -0.1201 0.8073 0.5778
vn 0.9109 -0.0649 0.4074
vn 0.8873 0.0902 0.4523
vn -0.5179 -0.1071 -0.8487
vn -0.9514 -0.2894 0.1050
vn -0.5981 0.7860 -0.1564
vn 0.0294 -0.9926 -0.1177
vn 0.4087 -0.8616 0.3011
vn 0.0688 -0.9922 0.1038
vn 0.2470 0.8666 0.4335
vn 0.7712 0.5732 -0.2771
vn 0.4974 0.7488 0.4381
vn 0.6990 0.4919 0.5191
vn -0.5002 -0.1687 -0.8493
vn -0.9896 0.1412 -0.0264
vn 0.4083 0.6493 0.6416
vn -0.0058 0.8115 0.5843
vn 0.6567 -0.3919 -0.6443
vn 0.8105 -0.4248 -0.4033
vn -0.8768 0.4778 0.0538
vn -0.9130 0.4078 0.0120
vn -0.3999 0.9160 0.0325
vn -0.0355 0.8227 -0.5673
vn -0.9009 0.0847 -0.4257
vn 0.1658 -0.6446 -0.7463
vn -0.5509 0.6191 -0.5597
vn 0.7628 0.1223 -0.6349
vn 0.6033 -0.5050 -0.6173
vn -0.2751 0.4204 -0.8646
vn -0.2121 -0.0952 0.9726
vn 0.2941 0.8766 -0.3808
vn 0.5358 0.7925 -0.2914
vn -0.4430 0.7254 0.5269
vn -0.0132 0.9739 0.2265
vn 0.3340 -0.8953 0.2946
vn -0.1595 -0.9691 -0.1884
vn 0.9032 -0.3827 -0.1945
vn -0.5746 0.3245 -0.7513
vn 0.5177 -0.5725 0.6357
vn 0.5047 0.6764 0.5365
vn -0.3083 0.9509 0.0278
vn -0.3241 0.9459 0.0140
vn 0.0942 -0.9940 0.0556
vn 0.3008 0.6215 0.7234
vn -0.1376 0.9767 0.1648
vn -0.1608 0.5431 0.8241
vn 0.8236 -0.5590 -0.0959
vn -0.0109 0.5933 -0.8049
vn 0.9153 0.1905 -0.3548
vn 0.5655 0.2999 -0.7683
vn -0.0331 -0.9964 0.0785
vn -0.9419 0.0120 -0.3358
vn -0.6741 0.4251 -0.6040
vn -0.1576 -0.9822 0.1023
vn 0.2442 0.7283 -0.6403
vn -0.7181 -0.6815 -0.1409
vn -0.2031 -0.9778 0.0519
vn 0.9737 -0.0473 0.2228
vn -0.1970 0.9657 -0.1693
vn 0.2102 0.9775 -0.0189
vn 0.9008 -0.4287 0.0699
vn 0.5323 -0.4639 -0.7082
vn -0.7769 -0.5005 -0.3820
vn 0.5927 -0.5176 0.6171
vn 0.4239 0.9057 -0.0049
vn -0.5491 -0.7937 0.2618
vn 0.8453 -0.3120 -0.4338
vn -0.0650 -0.9941 0.0873
vn 0.1926 -0.9789 -0.0687
vn 0.9306 -0.0475 0.3630
vn 0.6907 0.1587 0.7056
vn -0.9996 0.0283 0.0040
vn -0.3906 -0.8246 0.4092
vn 0.9587 -0.2728 -0.0811
vn -0.3814 0.6758 -0.6307
vn -0.9753 0.2199 0.0180
vn -0.4099 -0.9111 0.0436
vn 0.6223 -0.6362 0.4561
vn 0.5829 0.6628 0.4700
vn 0.9778 -0.2003 0.0610
vn -0.2770 -0.3243 -0.9045
vn 0.1623 -0.6920 -0.7035
vn -0.0053 -0.9692 -0.2463
vn 0.7233 -0.0159 0.6904
vn -0.5960 -0.5376 0.5965
vn -0.2303 0.2049 0.9513
vn -0.8955 0.2858 0.3411
vn -0.0886 0.9882 -0.1249
vn -0.0609 -0.6868 0.7243
vn 0.4311 0.3477 0.8326
vn 0.9194 -0.1306 0.3709
vn -0.6941 0.3825 -0.6098
vn 0.1454 -0.0569 -0.9877
vn -0.5638 0.1608 -0.8101
vn 0.6346 -0.5927 0.4960
vn 0.6783 0.7253 -0.1177
vn -0.7422 0.0338 -0.6694
vn 0.5608 -0.7946 -0.2327
vn -0.2716 -0.3294 0.9043
vn -0.2042 0.9587 0.1982
vn -0.3600 0.2197 -0.9067
vn -0.3356 0.3626 0.8694
vn -0.0338 0.8971 0.4406
vn -0.4997 -0.4368 0.7480
vn -0.6484 -0.0225 -0.7610
vn -0.9746 0.2235 0.0154
vn -0.8521 -0.2003 0.4834
vn -0.9408 0.3081 0.1412
vn -0.2181 0.3373 -0.9158
vn -0.1653 0.8613 0.4805
s 1
usemtl wire_087224198
f 143//1 68//2 98//3
f 168//4 492//5 176//6
f 133//7 213//8 343//9
f 211//10 7//11 295//12
f 256//13 222//14 259//15
f 174//16 67//17 96//18
f 136//19 22//20 150//21
f 468//22 280//23 4//24
f 140//25 230//26 62//27
f 295//12 426//28 332//29
f 129//30 19//31 259//15
f 422//32 5//33 4//24
f 56//34 32//35 31//36
f 406//37 84//38 308//39
f 39//40 242//41 19//31
f 476//42 273//43 44//44
f 121//45 471//46 153//47
f 186//48 328//49 114//50
f 44//44 338//51 244//52
f 80//53 59//54 486//55
f 64//56 344//57 297//58
f 227//59 232//60 147//61
f 23//62 82//63 260//64
f 122//65 70//66 123//67
f 32//35 367//68 202//69
f 260//64 416//70 481//71
f 420//72 390//73 406//37
f 250//74 326//75 107//76
f 192//77 37//78 305//79
f 303//80 131//81 108//82
f 296//83 211//10 295//12
f 103//84 413//85 92//86
f 249//87 99//88 208//89
f 66//90 227//59 430//91
f 362//92 445//93 254//94
f 311//95 90//96 203//97
f 214//98 270//99 321//100
f 132//101 396//102 74//103
f 472//104 426//28 7//11
f 109//105 20//106 190//107
f 245//108 372//109 189//110
f 143//1 482//111 8//112
f 304//113 81//114 144//115
f 39//40 19//31 50//116
f 416//70 158//117 367//68
f 295//12 7//11 426//28
f 183//118 148//119 165//120
f 15//121 114//50 225//122
f 302//123 248//124 162//125
f 21//126 175//127 144//115
f 154//128 149//129 151//130
f 435//131 134//132 188//133
f 51//134 182//135 235//136
f 388//137 287//138 487//139
f 400//140 54//141 137//142
f 65//143 109//105 382//144
f 109//105 64//56 20//106
f 461//145 482//111 126//146
f 32//35 202//69 263//147
f 112//148 9//149 93//150
f 150//21 205//151 135//152
f 383//153 475//154 290//155
f 123//67 183//118 131//81
f 479//156 35//157 255//158
f 490//159 197//160 189//110
f 500//161 293//162 64//56
f 9//149 201//163 358//164
f 46//165 80//53 267//166
f 498//167 485//168 463//169
f 468//22 5//33 6//170
f 210//171 138//172 235//136
f 210//171 414//173 138//172
f 242//41 39//40 40//174
f 280//23 468//22 159//175
f 465//176 232//60 43//177
f 120//178 213//8 18//179
f 25//180 121//45 155//181
f 403//182 420//72 160//183
f 211//10 326//75 250//74
f 253//184 170//185 344//57
f 456//186 87//187 89//188
f 56//34 31//36 116//189
f 325//190 271//191 169//192
f 445//93 310//193 254//94
f 212//194 62//27 28//195
f 425//196 58//197 81//114
f 261//198 95//199 12//200
f 82//63 37//78 118//201
f 421//202 212//194 68//2
f 469//203 374//204 491//205
f 34//206 444//207 231//208
f 74//103 95//199 441//209
f 144//115 104//210 61//211
f 9//149 358//164 29//212
f 500//161 394//213 319//214
f 279//215 243//216 282//217
f 421//202 457//218 423//219
f 283//220 226//221 229//222
f 284//223 404//224 353//225
f 290//155 98//3 33//226
f 496//227 456//186 470//228
f 167//229 291//230 216//231
f 264//232 119//233 322//234
f 95//199 291//230 206//235
f 399//236 448//237 155//181
f 132//101 218//238 156//239
f 189//110 12//200 239//240
f 284//223 482//111 439//241
f 441//209 95//199 324//242
f 273//43 154//128 155//181
f 201//163 9//149 234//243
f 287//138 454//244 487//139
f 26//245 273//43 477//246
f 15//121 347//247 480//248
f 148//119 113//249 371//250
f 210//171 296//83 434//251
f 94//252 107//76 453//253
f 350//254 455//255 156//239
f 421//202 433//256 209//257
f 314//258 125//259 278//260
f 160//183 22//20 45//261
f 168//4 176//6 97//262
f 292//263 194//264 446//265
f 174//16 96//18 50//116
f 474//266 483//267 53//268
f 44//44 244//52 278//260
f 71//269 58//197 215//270
f 58//197 11//271 81//114
f 246//272 245//108 427//273
f 116//189 117//274 119//233
f 442//275 136//19 21//126
f 346//276 428//277 133//7
f 41//278 242//41 40//174
f 349//279 348//280 41//278
f 69//281 222//14 473//282
f 492//5 384//283 427//273
f 95//199 261//198 111//284
f 484//285 146//286 196//287
f 381//288 220//289 318//290
f 357//291 83//292 353//225
f 47//293 466//294 46//165
f 29//212 66//90 430//91
f 365//295 110//296 214//98
f 366//297 124//298 466//294
f 171//299 58//197 71//269
f 280//23 53//268 373//300
f 118//201 49//301 82//63
f 299//302 47//293 363//303
f 180//304 222//14 256//13
f 151//130 446//265 163//305
f 395//306 225//122 114//50
f 216//231 374//204 167//229
f 33//226 401//307 412//308
f 435//131 250//74 419//309
f 440//310 38//311 5//33
f 340//312 73//313 306//314
f 51//134 453//253 326//75
f 258//315 371//250 113//249
f 120//178 71//269 215//270
f 223//316 63//317 364//318
f 138//172 405//319 102//320
f 127//321 35//157 30//322
f 243//216 103//84 282//217
f 486//55 471//46 387//323
f 465//176 300//324 232//60
f 209//257 364//318 421//202
f 364//318 209//257 85//325
f 237//326 204//327 93//150
f 113//249 12//200 258//315
f 10//328 339//329 464//330
f 294//331 104//210 205//151
f 441//209 289//332 57//333
f 359//334 357//291 46//165
f 442//275 21//126 45//261
f 236//335 194//264 105//336
f 220//289 72//337 318//290
f 381//288 287//138 386//338
f 333//339 493//340 281//341
f 367//68 32//35 481//71
f 186//48 114//50 463//169
f 130//342 401//307 352//343
f 145//344 24//345 116//189
f 455//255 350//254 313//346
f 202//69 269//347 270//99
f 450//348 84//38 406//37
f 124//298 392//349 391//350
f 355//351 140//25 325//190
f 62//27 212//194 421//202
f 344//57 64//56 407//352
f 399//236 121//45 153//47
f 399//236 153//47 86//353
f 236//335 105//336 151//130
f 179//354 340//312 306//314
f 337//355 282//217 358//164
f 266//356 312//357 201//163
f 177//358 6//170 410//359
f 418//360 467//361 83//292
f 277//362 371//250 276//363
f 467//361 228//364 286//365
f 393//366 458//367 445//93
f 222//14 77//368 473//282
f 196//287 79//369 141//370
f 308//39 285//371 38//311
f 317//372 297//58 415//373
f 137//142 54//141 324//242
f 395//306 114//50 328//49
f 468//22 488//374 159//175
f 116//189 24//345 117//274
f 325//190 379//375 271//191
f 100//376 276//363 371//250
f 402//377 249//87 208//89
f 406//37 22//20 160//183
f 416//70 356//378 380//379
f 412//308 401//307 181//380
f 372//109 409//381 438//382
f 490//159 438//382 91//383
f 50//116 129//30 283//220
f 202//69 67//17 484//285
f 306//314 16//384 174//16
f 227//59 66//90 92//86
f 230//26 130//342 62//27
f 109//105 319//214 394//213
f 258//315 389//385 445//93
f 224//386 56//34 260//64
f 257//387 4//24 437//388
f 197//160 389//385 189//110
f 163//305 446//265 194//264
f 470//228 168//4 97//262
f 433//256 228//364 209//257
f 383//153 391//350 475//154
f 178//389 316//390 293//162
f 480//248 60//391 223//316
f 339//329 119//233 464//330
f 297//58 247//392 377//393
f 398//394 288//395 460//396
f 117//274 322//234 119//233
f 104//210 304//113 61//211
f 98//3 462//397 143//1
f 31//36 32//35 24//345
f 243//216 279//215 20//106
f 390//73 420//72 392//349
f 497//398 393//366 417//399
f 170//185 309//400 297//58
f 155//181 448//237 341//401
f 106//402 129//30 128//403
f 328//49 375//404 152//405
f 149//129 478//406 281//341
f 189//110 389//385 12//200
f 334//407 25//180 151//130
f 320//408 42//409 356//378
f 146//286 79//369 196//287
f 134//132 435//131 419//309
f 471//46 333//339 387//323
f 259//15 128//403 129//30
f 276//363 100//376 198//410
f 359//334 480//248 152//405
f 110//296 365//295 115//411
f 36//412 142//413 207//414
f 138//172 102//320 235//136
f 155//181 121//45 399//236
f 256//13 242//41 345//415
f 143//1 8//112 68//2
f 257//387 397//416 422//32
f 185//417 435//131 327//418
f 314//258 257//387 231//208
f 86//353 440//310 411//419
f 146//286 484//285 13//420
f 458//367 393//366 497//398
f 194//264 311//95 203//97
f 272//421 44//44 274//422
f 99//88 238//423 208//89
f 319//214 65//143 500//161
f 253//184 362//92 331//424
f 202//69 367//68 172//425
f 487//139 454//244 275//426
f 2//427 47//293 267//166
f 339//329 329//428 119//233
f 161//429 156//239 472//104
f 336//430 476//42 44//44
f 237//326 29//212 255//158
f 67//17 202//69 172//425
f 368//431 489//432 310//193
f 388//137 469//203 452//433
f 231//208 444//207 429//434
f 409//381 372//109 378//435
f 274//422 44//44 273//43
f 63//317 60//391 62//27
f 63//317 495//436 60//391
f 387//323 75//437 171//299
f 182//135 211//10 210//171
f 315//438 157//439 376//440
f 100//376 371//250 301//441
f 435//131 188//133 441//209
f 414//173 434//251 296//83
f 164//442 371//250 277//362
f 303//80 108//82 78//443
f 433//256 286//365 228//364
f 365//295 214//98 313//346
f 293//162 500//161 436//444
f 93//150 240//445 112//148
f 15//121 480//248 85//325
f 229//222 73//313 340//312
f 44//44 272//421 338//51
f 33//226 369//446 290//155
f 382//144 109//105 190//107
f 188//133 74//103 441//209
f 492//5 427//273 176//6
f 396//102 161//429 360//447
f 207//414 142//413 277//362
f 180//304 432//448 77//368
f 470//228 370//449 335//450
f 454//244 287//138 318//290
f 338//51 272//421 274//422
f 79//369 146//286 283//220
f 487//139 275//426 469//203
f 255//158 29//212 479//156
f 138//172 414//173 444//207
f 472//104 217//451 161//429
f 191//452 137//142 289//332
f 43//177 302//123 465//176
f 72//337 381//288 176//6
f 344//57 407//352 417//399
f 438//382 189//110 372//109
f 303//80 36//412 35//157
f 177//358 488//374 468//22
f 347//247 298//453 152//405
f 172//425 367//68 158//117
f 352//343 401//307 241//454
f 9//149 29//212 93//150
f 160//183 420//72 406//37
f 386//338 176//6 381//288
f 405//319 437//388 51//134
f 19//31 242//41 259//15
f 486//55 120//178 18//179
f 376//440 123//67 303//80
f 416//70 49//301 53//268
f 157//439 29//212 430//91
f 238//423 193//455 402//377
f 103//84 92//86 358//164
f 499//456 74//103 216//231
f 411//419 440//310 422//32
f 3//457 432//448 42//409
f 45//261 21//126 81//114
f 162//125 430//91 465//176
f 3//457 483//267 474//266
f 194//264 236//335 311//95
f 189//110 275//426 454//244
f 175//127 135//152 144//115
f 240//445 204//327 112//148
f 78//443 164//442 277//362
f 251//458 380//379 345//415
f 317//372 161//429 217//451
f 243//216 413//85 103//84
f 245//108 189//110 318//290
f 452//433 447//459 14//460
f 218//238 132//101 350//254
f 223//316 364//318 480//248
f 17//461 429//434 444//207
f 39//40 50//116 251//458
f 138//172 34//206 405//319
f 137//142 157//439 162//125
f 3//457 280//23 488//374
f 64//56 109//105 500//161
f 119//233 187//462 464//330
f 173//463 24//345 32//35
f 91//383 409//381 378//435
f 17//461 432//448 488//374
f 414//173 17//461 444//207
f 387//323 333//339 75//437
f 331//424 362//92 254//94
f 472//104 265//464 137//142
f 14//460 388//137 452//433
f 404//224 46//165 353//225
f 438//382 490//159 189//110
f 83//292 286//365 184//465
f 383//153 55//466 60//391
f 497//398 27//467 301//441
f 64//56 297//58 20//106
f 351//468 14//460 447//459
f 456//186 385//469 87//187
f 388//137 14//460 87//187
f 216//231 291//230 499//456
f 164//442 165//120 148//119
f 398//394 225//122 395//306
f 421//202 423//219 494//470
f 397//416 314//258 278//260
f 7//11 211//10 185//417
f 379//375 55//466 252//471
f 102//320 405//319 51//134
f 491//205 360//447 469//203
f 391//350 383//153 359//334
f 140//25 60//391 325//190
f 307//472 57//333 289//332
f 217//451 76//473 248//124
f 498//167 359//334 485//168
f 425//196 215//270 58//197
f 391//350 46//165 466//294
f 458//367 301//441 258//315
f 327//418 57//333 265//464
f 281//341 478//406 461//145
f 393//366 362//92 344//57
f 499//456 95//199 74//103
f 457//218 8//112 423//219
f 8//112 457//218 68//2
f 451//474 410//359 476//42
f 449//475 173//463 322//234
f 299//302 408//476 26//245
f 496//227 97//262 176//6
f 298//453 328//49 152//405
f 107//76 419//309 250//74
f 136//19 150//21 21//126
f 113//249 261//198 12//200
f 355//351 181//380 401//307
f 474//266 53//268 280//23
f 382//144 238//423 65//143
f 256//13 259//15 242//41
f 13//420 226//221 146//286
f 469//203 275//426 167//229
f 316//390 27//467 497//398
f 143//1 75//437 482//111
f 377//393 232//60 227//59
f 219//477 264//232 263//147
f 296//83 77//368 414//173
f 396//102 132//101 161//429
f 325//190 55//466 379//375
f 313//346 321//100 455//255
f 293//162 407//352 64//56
f 418//360 228//364 467//361
f 123//67 70//66 113//249
f 51//134 235//136 102//320
f 376//440 303//80 29//212
f 499//456 291//230 95//199
f 276//363 207//414 277//362
f 100//376 249//87 266//356
f 266//356 249//87 139//478
f 26//245 154//128 273//43
f 96//18 172//425 251//458
f 77//368 222//14 180//304
f 323//479 316//390 178//389
f 229//222 226//221 13//420
f 295//12 69//281 166//480
f 35//157 479//156 29//212
f 69//281 473//282 166//480
f 49//301 260//64 82//63
f 375//404 328//49 186//48
f 87//187 385//469 287//138
f 299//302 268//481 47//293
f 252//471 169//192 379//375
f 270//99 263//147 202//69
f 110//296 187//462 263//147
f 75//437 333//339 126//146
f 126//146 482//111 75//437
f 270//99 214//98 110//296
f 378//435 245//108 384//283
f 48//482 107//76 94//252
f 35//157 29//212 303//80
f 237//326 127//321 30//322
f 239//240 167//229 275//426
f 303//80 142//413 36//412
f 127//321 255//158 35//157
f 376//440 330//483 324//242
f 460//396 225//122 398//394
f 161//429 317//372 415//373
f 147//61 300//324 430//91
f 17//461 451//474 429//434
f 359//334 152//405 342//484
f 366//297 47//293 268//481
f 416//70 53//268 356//378
f 170//185 253//184 309//400
f 386//338 52//485 385//469
f 260//64 49//301 416//70
f 48//482 37//78 107//76
f 268//481 410//359 124//298
f 496//227 385//469 443//486
f 321//100 484//285 196//287
f 418//360 498//167 463//169
f 373//300 437//388 4//24
f 411//419 448//237 86//353
f 177//358 451//474 488//374
f 231//208 429//434 125//259
f 67//17 16//384 484//285
f 1//487 86//353 428//277
f 221//488 121//45 203//97
f 357//291 359//334 498//167
f 399//236 86//353 448//237
f 475//154 391//350 392//349
f 57//333 327//418 435//131
f 43//177 232//60 247//392
f 207//414 276//363 36//412
f 283//220 340//312 179//354
f 475//154 420//72 290//155
f 167//229 374//204 469//203
f 414//173 432//448 17//461
f 284//223 439//241 80//53
f 29//212 315//438 376//440
f 281//341 121//45 149//129
f 281//341 493//340 121//45
f 224//386 32//35 56//34
f 121//45 25//180 203//97
f 451//474 476//42 336//430
f 3//457 474//266 280//23
f 455//255 321//100 196//287
f 453//253 51//134 437//388
f 301//441 27//467 99//88
f 100//376 301//441 99//88
f 300//324 465//176 430//91
f 153//47 363//303 2//427
f 417//399 393//366 344//57
f 364//318 63//317 62//27
f 198//410 266//356 201//163
f 384//283 492//5 91//383
f 106//402 222//14 69//281
f 74//103 188//133 115//411
f 173//463 449//475 24//345
f 341//401 273//43 155//181
f 236//335 90//96 311//95
f 251//458 40//174 39//40
f 190//107 20//106 193//455
f 363//303 153//47 361//489
f 126//146 333//339 461//145
f 231//208 125//259 314//258
f 121//45 221//488 149//129
f 125//259 336//430 44//44
f 411//419 397//416 338//51
f 162//125 472//104 137//142
f 197//160 91//383 310//193
f 197//160 490//159 91//383
f 484//285 269//347 202//69
f 441//209 324//242 191//452
f 119//233 264//232 219//477
f 483//267 320//408 53//268
f 213//8 80//53 486//55
f 360//447 351//468 447//459
f 153//47 2//427 133//7
f 436//444 178//389 293//162
f 422//32 440//310 5//33
f 467//361 286//365 83//292
f 8//112 482//111 284//223
f 290//155 420//72 403//182
f 216//231 396//102 491//205
f 158//117 380//379 172//425
f 214//98 321//100 313//346
f 353//225 46//165 357//291
f 142//413 78//443 277//362
f 345//415 40//174 251//458
f 258//315 12//200 389//385
f 107//76 37//78 192//77
f 106//402 295//12 332//29
f 109//105 394//213 500//161
f 331//424 335//450 88//490
f 215//270 294//331 120//178
f 333//339 471//46 493//340
f 133//7 262//491 346//276
f 227//59 243//216 377//393
f 65//143 319//214 109//105
f 248//124 247//392 217//451
f 258//315 301//441 371//250
f 346//276 262//491 22//20
f 131//81 165//120 108//82
f 230//26 401//307 130//342
f 213//8 120//178 343//9
f 315//438 29//212 157//439
f 397//416 257//387 314//258
f 119//233 56//34 116//189
f 251//458 172//425 380//379
f 291//230 239//240 206//235
f 486//55 59//54 471//46
f 478//406 200//492 439//241
f 23//62 37//78 82//63
f 286//365 284//223 353//225
f 356//378 42//409 380//379
f 192//77 339//329 419//309
f 45//261 459//493 442//275
f 447//459 452//433 360//447
f 351//468 297//58 309//400
f 87//187 335//450 89//188
f 368//431 91//383 470//228
f 111//284 123//67 324//242
f 206//235 12//200 95//199
f 411//419 422//32 397//416
f 197//160 445//93 389//385
f 263//147 264//232 431//494
f 186//48 463//169 485//168
f 351//468 360//447 161//429
f 201//163 312//357 337//355
f 135//152 175//127 150//21
f 470//228 492//5 168//4
f 397//416 278//260 338//51
f 410//359 268//481 477//246
f 273//43 411//419 274//422
f 200//492 26//245 408//476
f 373//300 49//301 94//252
f 437//388 94//252 453//253
f 203//97 163//305 194//264
f 432//448 414//173 77//368
f 223//316 60//391 495//436
f 86//353 1//487 440//310
f 161//429 132//101 156//239
f 158//117 416//70 380//379
f 325//190 181//380 355//351
f 265//464 289//332 137//142
f 98//3 68//2 33//226
f 292//263 151//130 105//336
f 247//392 297//58 217//451
f 155//181 154//128 151//130
f 293//162 316//390 497//398
f 500//161 65//143 436//444
f 406//37 38//311 1//487
f 105//336 194//264 292//263
f 81//114 160//183 45//261
f 147//61 232//60 300//324
f 461//145 439//241 482//111
f 290//155 403//182 98//3
f 282//217 312//357 279//215
f 101//495 353//225 184//465
f 137//142 191//452 400//140
f 273//43 341//401 448//237
f 376//440 324//242 123//67
f 323//479 99//88 316//390
f 187//462 110//296 115//411
f 434//251 414//173 210//171
f 326//75 182//135 51//134
f 329//428 339//329 23//62
f 381//288 318//290 287//138
f 307//472 265//464 57//333
f 74//103 115//411 132//101
f 55//466 290//155 412//308
f 137//142 324//242 157//439
f 266//356 139//478 279//215
f 30//322 35//157 36//412
f 366//297 268//481 124//298
f 493//340 471//46 121//45
f 290//155 369//446 412//308
f 309//400 87//187 14//460
f 326//75 211//10 182//135
f 462//397 171//299 143//1
f 336//430 125//259 429//434
f 9//149 112//148 30//322
f 100//376 266//356 198//410
f 30//322 112//148 204//327
f 387//323 71//269 486//55
f 480//248 383//153 60//391
f 50//116 96//18 251//458
f 188//133 134//132 115//411
f 178//389 65//143 99//88
f 88//490 309//400 253//184
f 113//249 148//119 183//118
f 118//201 94//252 49//301
f 48//482 94//252 118//201
f 247//392 302//123 43//177
f 162//125 248//124 76//473
f 62//27 60//391 140//25
f 241//454 401//307 28//195
f 7//11 185//417 327//418
f 418//360 114//50 228//364
f 294//331 215//270 425//196
f 6//170 392//349 124//298
f 426//28 141//370 332//29
f 310//193 91//383 368//431
f 486//55 71//269 120//178
f 294//331 343//9 120//178
f 458//367 497//398 301//441
f 451//474 336//430 429//434
f 441//209 191//452 289//332
f 406//37 308//39 38//311
f 244//52 338//51 278//260
f 113//249 111//284 261//198
f 59//54 361//489 471//46
f 470//228 456//186 370//449
f 330//483 376//440 157//439
f 322//234 117//274 24//345
f 59//54 80//53 354//496
f 145//344 31//36 24//345
f 309//400 14//460 351//468
f 87//187 88//490 335//450
f 478//406 439//241 461//145
f 81//114 21//126 144//115
f 360//447 452//433 469//203
f 356//378 53//268 320//408
f 179//354 306//314 174//16
f 238//423 382//144 193//455
f 226//221 283//220 146//286
f 470//228 97//262 496//227
f 450//348 406//37 390//73
f 22//20 136//19 459//493
f 59//54 354//496 424//497
f 325//190 412//308 181//380
f 386//338 287//138 52//485
f 216//231 491//205 374//204
f 355//351 401//307 230//26
f 477//246 268//481 26//245
f 303//80 78//443 142//413
f 403//182 11//271 98//3
f 403//182 160//183 11//271
f 498//167 418//360 83//292
f 498//167 83//292 357//291
f 125//259 44//44 278//260
f 347//247 152//405 480//248
f 347//247 15//121 460//396
f 373//300 53//268 49//301
f 42//409 432//448 180//304
f 212//194 28//195 68//2
f 475//154 392//349 420//72
f 156//239 455//255 426//28
f 276//363 198//410 199//498
f 446//265 151//130 292//263
f 90//96 236//335 151//130
f 32//35 431//494 173//463
f 390//73 392//349 450//348
f 176//6 427//273 72//337
f 354//496 200//492 424//497
f 284//223 80//53 46//165
f 468//22 4//24 5//33
f 443//486 456//186 496//227
f 297//58 351//468 415//373
f 83//292 184//465 353//225
f 265//464 307//472 289//332
f 355//351 230//26 140//25
f 269//347 484//285 321//100
f 172//425 96//18 67//17
f 79//369 106//402 332//29
f 157//439 324//242 330//483
f 335//450 370//449 89//188
f 166//480 296//83 295//12
f 178//389 99//88 323//479
f 111//284 122//65 123//67
f 304//113 294//331 425//196
f 412//308 169//192 252//471
f 412//308 325//190 169//192
f 45//261 22//20 459//493
f 134//132 10//328 464//330
f 55//466 412//308 252//471
f 17//461 488//374 451//474
f 415//373 351//468 161//429
f 177//358 468//22 6//170
f 494//470 423//219 8//112
f 3//457 488//374 432//448
f 348//280 40//174 345//415
f 334//407 163//305 25//180
f 477//246 273//43 476//42
f 58//197 171//299 11//271
f 92//86 66//90 358//164
f 366//297 466//294 47//293
f 62//27 241//454 28//195
f 494//470 286//365 433//256
f 145//344 116//189 31//36
f 26//245 268//481 299//302
f 234//243 199//498 201//163
f 201//163 337//355 358//164
f 304//113 425//196 81//114
f 195//499 262//491 343//9
f 41//278 40//174 349//279
f 41//278 345//415 242//41
f 41//278 348//280 345//415
f 141//370 455//255 196//287
f 334//407 151//130 163//305
f 174//16 16//384 67//17
f 228//364 114//50 209//257
f 7//11 327//418 265//464
f 223//316 495//436 63//317
f 32//35 224//386 481//71
f 305//79 37//78 23//62
f 298//453 347//247 288//395
f 106//402 69//281 295//12
f 343//9 294//331 195//499
f 213//8 267//166 80//53
f 304//113 144//115 61//211
f 1//487 346//276 406//37
f 1//487 428//277 346//276
f 339//329 305//79 23//62
f 229//222 13//420 73//313
f 234//243 276//363 199//498
f 450//348 392//349 84//38
f 418//360 463//169 114//50
f 153//47 133//7 428//277
f 328//49 298//453 395//306
f 6//170 124//298 410//359
f 113//249 183//118 123//67
f 284//223 46//165 404//224
f 299//302 361//489 408//476
f 32//35 263//147 431//494
f 133//7 267//166 213//8
f 119//233 329//428 56//34
f 442//275 459//493 136//19
f 189//110 239//240 275//426
f 27//467 316//390 99//88
f 141//370 79//369 332//29
f 50//116 283//220 179//354
f 367//68 481//71 416//70
f 343//9 262//491 133//7
f 240//445 93//150 204//327
f 235//136 182//135 210//171
f 210//171 211//10 296//83
f 294//331 205//151 150//21
f 396//102 216//231 74//103
f 193//455 139//478 402//377
f 472//104 162//125 217//451
f 458//367 258//315 445//93
f 288//395 347//247 460//396
f 38//311 440//310 1//487
f 151//130 25//180 155//181
f 478//406 149//129 154//128
f 110//296 263//147 270//99
f 237//326 255//158 127//321
f 451//474 177//358 410//359
f 453//253 107//76 326//75
f 460//396 15//121 225//122
f 66//90 29//212 358//164
f 297//58 377//393 20//106
f 448//237 411//419 273//43
f 320//408 483//267 3//457
f 383//153 480//248 359//334
f 320//408 3//457 42//409
f 95//199 111//284 324//242
f 111//284 70//66 122//65
f 238//423 99//88 65//143
f 439//241 354//496 80//53
f 211//10 250//74 185//417
f 190//107 193//455 382//144
f 9//149 36//412 234//243
f 62//27 421//202 364//318
f 147//61 430//91 227//59
f 361//489 299//302 363//303
f 419//309 339//329 10//328
f 9//149 30//322 36//412
f 419//309 107//76 192//77
f 33//226 412//308 369//446
f 104//210 144//115 205//151
f 478//406 154//128 200//492
f 159//175 488//374 280//23
f 335//450 331//424 470//228
f 419//309 10//328 134//132
f 171//299 75//437 143//1
f 427//273 318//290 72//337
f 491//205 396//102 360//447
f 233//500 231//208 257//387
f 384//283 245//108 246//272
f 55//466 325//190 60//391
f 221//488 151//130 149//129
f 270//99 269//347 321//100
f 12//200 206//235 239//240
f 46//165 267//166 47//293
f 417//399 407//352 497//398
f 302//123 247//392 248//124
f 129//30 79//369 283//220
f 11//271 160//183 81//114
f 378//435 384//283 91//383
f 462//397 11//271 171//299
f 247//392 232//60 377//393
f 219//477 187//462 119//233
f 197//160 310//193 445//93
f 30//322 204//327 237//326
f 4//24 280//23 373//300
f 331//424 88//490 253//184
f 167//229 239//240 291//230
f 68//2 457//218 421//202
f 23//62 260//64 56//34
f 130//342 352//343 241//454
f 166//480 77//368 296//83
f 103//84 358//164 282//217
f 208//89 238//423 402//377
f 219//477 263//147 187//462
f 59//54 424//497 361//489
f 22//20 195//499 150//21
f 28//195 401//307 33//226
f 430//91 162//125 157//439
f 85//325 209//257 114//50
f 178//389 436//444 65//143
f 484//285 16//384 13//420
f 282//217 337//355 312//357
f 46//165 391//350 359//334
f 229//222 340//312 283//220
f 241//454 62//27 130//342
f 191//452 54//141 400//140
f 331//424 254//94 310//193
f 407//352 293//162 497//398
f 365//295 313//346 350//254
f 368//431 470//228 331//424
f 485//168 359//334 342//484
f 132//101 115//411 350//254
f 409//381 91//383 438//382
f 84//38 392//349 308//39
f 284//223 494//470 8//112
f 361//489 153//47 471//46
f 118//201 37//78 48//482
f 156//239 426//28 472//104
f 144//115 135//152 205//151
f 285//371 392//349 6//170
f 183//118 165//120 131//81
f 173//463 431//494 264//232
f 56//34 329//428 23//62
f 42//409 345//415 380//379
f 7//11 265//464 472//104
f 6//170 38//311 285//371
f 469//203 388//137 487//139
f 259//15 222//14 128//403
f 221//488 203//97 90//96
f 2//427 267//166 133//7
f 151//130 221//488 90//96
f 101//495 286//365 353//225
f 338//51 274//422 411//419
f 364//318 85//325 480//248
f 16//384 73//313 13//420
f 87//187 309//400 88//490
f 26//245 200//492 154//128
f 256//13 345//415 180//304
f 368//431 331//424 489//432
f 466//294 124//298 391//350
f 233//500 257//387 437//388
f 164//442 78//443 108//82
f 15//121 85//325 114//50
f 342//484 375//404 485//168
f 249//87 402//377 139//478
f 363//303 47//293 2//427
f 262//491 195//499 22//20
f 339//329 192//77 305//79
f 427//273 245//108 318//290
f 250//74 435//131 185//417
f 134//132 464//330 187//462
f 279//215 193//455 20//106
f 287//138 388//137 87//187
f 370//449 456//186 89//188
f 350//254 156//239 218//238
f 454//244 318//290 189//110
f 346//276 22//20 406//37
f 34//206 231//208 233//500
f 422//32 4//24 257//387
f 492//5 470//228 91//383
f 348//280 349//279 40//174
f 377//393 243//216 20//106
f 288//395 398//394 395//306
f 28//195 33//226 68//2
f 437//388 373//300 94//252
f 187//462 115//411 134//132
f 186//48 485//168 375//404
f 57//333 435//131 441//209
f 141//370 426//28 455//255
f 224//386 260//64 481//71
f 385//469 496//227 386//338
f 100//376 99//88 249//87
f 246//272 427//273 384//283
f 371//250 164//442 148//119
f 106//402 128//403 222//14
f 237//326 93//150 29//212
f 279//215 139//478 193//455
f 345//415 42//409 180//304
f 285//371 308//39 392//349
f 5//33 38//311 6//170
f 217//451 162//125 76//473
f 25//180 163//305 203//97
f 445//93 362//92 393//366
f 16//384 306//314 73//313
f 304//113 104//210 294//331
f 253//184 344//57 362//92
f 129//30 50//116 19//31
f 297//58 344//57 170//185
f 195//499 294//331 150//21
f 150//21 175//127 21//126
f 365//295 350//254 115//411
f 342//484 152//405 375//404
f 86//353 153//47 428//277
f 372//109 245//108 378//435
f 287//138 385//469 52//485
f 324//242 54//141 191//452
f 77//368 166//480 473//282
f 405//319 233//500 437//388
f 169//192 271//191 379//375
f 413//85 227//59 92//86
f 79//369 129//30 106//402
f 433//256 421//202 494//470
f 489//432 331//424 310//193
f 333//339 281//341 461//145
f 11//271 462//397 98//3
f 276//363 234//243 36//412
f 439//241 200//492 354//496
f 164//442 108//82 165//120
f 101//495 184//465 286//365
f 413//85 243//216 227//59
f 317//372 217//451 297//58
f 213//8 486//55 18//179
f 284//223 286//365 494//470
f 220//289 381//288 72//337
f 111//284 113//249 70//66
f 312//357 266//356 279//215
f 264//232 322//234 173//463
f 176//6 386//338 496//227
f 303//80 123//67 131//81
f 288//395 395//306 298//453
f 24//345 449//475 322//234
f 55//466 383//153 290//155
f 302//123 162//125 465//176
f 34//206 138//172 444//207
f 387//323 171//299 71//269
f 405//319 34//206 233//500
f 443//486 385//469 456//186
f 476//42 410//359 477//246
f 199//498 198//410 201//163
f 408//476 424//497 200//492
f 408//476 361//489 424//497
f 50//116 179//354 174//16
