mtllib cornell_box.mtl
o back_wall
v 1 0 1
v 0 0 1
v 0 1 1
v 1 1 1
s 0
usemtl back_wall
f 1 2 3 4

o ceiling
v 1 1 0
v 1 1 1
v 0 1 1
v 0 1 0
s 0
usemtl white
f 5 6 7 8

# o floor
# v 1 0 0
# v 0 0 0
# v 0 0 1
# v 1 0 1
# s 0
# usemtl blue
# f 9 10 11 12

o green_wall
v 0 0 1
v 0 0 0
v 0 1 0
v 0 1 1
s 0
usemtl green
f -4 -3 -2 -1

o red_wall
v 1 0 0
v 1 0 1
v 1 1 1
v 1 1 0
s 0
usemtl red
f -4 -3 -2 -1

o front_wall
v 1 1 0
v 1 0 0
v 0 0 0
v 0 1 0
s 0
usemtl white
f -1 -2 -3 -4

o floor1
v 0.000000 0.000000 0.000000
v 1.000000 0.000000 1.000000
v 0.000000 0.000000 0.125000
v 0.000000 0.000000 0.250000
v 0.000000 0.000000 0.375000
v 0.000000 0.000000 0.500000
v 0.000000 0.000000 0.625000
v 0.000000 0.000000 0.750000
v 0.000000 0.000000 0.875000
v 1.000000 0.000000 0.125000
v 1.000000 0.000000 0.250000
v 1.000000 0.000000 0.375000
v 1.000000 0.000000 0.500000
v 1.000000 0.000000 0.625000
v 1.000000 0.000000 0.750000
v 1.000000 0.000000 0.875000
v 0.125000 0.000000 1.000000
v 0.250000 0.000000 1.000000
v 0.375000 0.000000 1.000000
v 0.500000 0.000000 1.000000
v 0.625000 0.000000 1.000000
v 0.750000 0.000000 1.000000
v 0.875000 0.000000 1.000000
v 0.875000 0.000000 0.000000
v 0.750000 0.000000 0.000000
v 0.625000 0.000000 0.000000
v 0.500000 0.000000 0.000000
v 0.375000 0.000000 0.000000
v 0.250000 0.000000 0.000000
v 0.125000 0.000000 0.000000
v 0.125000 0.000000 0.125000
v 0.250000 0.000000 0.125000
v 0.375000 0.000000 0.125000
v 0.500000 0.000000 0.125000
v 0.625000 0.000000 0.125000
v 0.750000 0.000000 0.125000
v 0.875000 0.000000 0.125000
v 0.125000 0.000000 0.250000
v 0.250000 0.000000 0.250000
v 0.375000 0.000000 0.250000
v 0.500000 0.000000 0.250000
v 0.625000 0.000000 0.250000
v 0.750000 0.000000 0.250000
v 0.875000 0.000000 0.250000
v 0.125000 0.000000 0.375000
v 0.250000 0.000000 0.375000
v 0.375000 0.000000 0.375000
v 0.500000 0.000000 0.375000
v 0.625000 0.000000 0.375000
v 0.750000 0.000000 0.375000
v 0.875000 0.000000 0.375000
v 0.125000 0.000000 0.500000
v 0.250000 0.000000 0.500000
v 0.375000 0.000000 0.500000
v 0.500000 0.000000 0.500000
v 0.625000 0.000000 0.500000
v 0.750000 0.000000 0.500000
v 0.875000 0.000000 0.500000
v 0.125000 0.000000 0.625000
v 0.250000 0.000000 0.625000
v 0.375000 0.000000 0.625000
v 0.500000 0.000000 0.625000
v 0.625000 0.000000 0.625000
v 0.750000 0.000000 0.625000
v 0.875000 0.000000 0.625000
v 0.125000 0.000000 0.750000
v 0.250000 0.000000 0.750000
v 0.375000 0.000000 0.750000
v 0.500000 0.000000 0.750000
v 0.625000 0.000000 0.750000
v 0.750000 0.000000 0.750000
v 0.875000 0.000000 0.750000
v 0.125000 0.000000 0.875000
v 0.250000 0.000000 0.875000
v 0.375000 0.000000 0.875000
v 0.500000 0.000000 0.875000
v 0.625000 0.000000 0.875000
v 0.750000 0.000000 0.875000
v 0.875000 0.000000 0.875000
s 0
usemtl white
f 30 1 3 31
f 38 4 5 45
f 52 6 7 59
f 66 8 9 73
f 72 71 78 79
f 70 69 76 77
f 68 67 74 75
f 14 65 72 15
f 64 63 70 71
f 62 61 68 69
f 60 59 66 67
f 58 57 64 65
f 56 55 62 63
f 54 53 60 61
f 12 51 58 13
f 50 49 56 57
f 48 47 54 55
f 46 45 52 53
f 44 43 50 51
f 42 41 48 49
f 40 39 46 47
f 10 37 44 11
f 36 35 42 43
f 34 33 40 41
f 32 31 38 39
f 24 25 36 37
f 26 27 34 35
f 28 29 32 33
f 16 79 23 2
f 78 77 21 22
f 76 75 19 20
f 74 73 17 18

o floor2
v 1.000000 0.000000 0.000000
v 0.000000 0.000000 1.000000
v 0.000000 0.000000 0.125000
v 0.000000 0.000000 0.250000
v 0.000000 0.000000 0.375000
v 0.000000 0.000000 0.500000
v 0.000000 0.000000 0.625000
v 0.000000 0.000000 0.750000
v 0.000000 0.000000 0.875000
v 1.000000 0.000000 0.125000
v 1.000000 0.000000 0.250000
v 1.000000 0.000000 0.375000
v 1.000000 0.000000 0.500000
v 1.000000 0.000000 0.625000
v 1.000000 0.000000 0.750000
v 1.000000 0.000000 0.875000
v 0.125000 0.000000 1.000000
v 0.250000 0.000000 1.000000
v 0.375000 0.000000 1.000000
v 0.500000 0.000000 1.000000
v 0.625000 0.000000 1.000000
v 0.750000 0.000000 1.000000
v 0.875000 0.000000 1.000000
v 0.875000 0.000000 0.000000
v 0.750000 0.000000 0.000000
v 0.625000 0.000000 0.000000
v 0.500000 0.000000 0.000000
v 0.375000 0.000000 0.000000
v 0.250000 0.000000 0.000000
v 0.125000 0.000000 0.000000
v 0.125000 0.000000 0.125000
v 0.250000 0.000000 0.125000
v 0.375000 0.000000 0.125000
v 0.500000 0.000000 0.125000
v 0.625000 0.000000 0.125000
v 0.750000 0.000000 0.125000
v 0.875000 0.000000 0.125000
v 0.125000 0.000000 0.250000
v 0.250000 0.000000 0.250000
v 0.375000 0.000000 0.250000
v 0.500000 0.000000 0.250000
v 0.625000 0.000000 0.250000
v 0.750000 0.000000 0.250000
v 0.875000 0.000000 0.250000
v 0.125000 0.000000 0.375000
v 0.250000 0.000000 0.375000
v 0.375000 0.000000 0.375000
v 0.500000 0.000000 0.375000
v 0.625000 0.000000 0.375000
v 0.750000 0.000000 0.375000
v 0.875000 0.000000 0.375000
v 0.125000 0.000000 0.500000
v 0.250000 0.000000 0.500000
v 0.375000 0.000000 0.500000
v 0.500000 0.000000 0.500000
v 0.625000 0.000000 0.500000
v 0.750000 0.000000 0.500000
v 0.875000 0.000000 0.500000
v 0.125000 0.000000 0.625000
v 0.250000 0.000000 0.625000
v 0.375000 0.000000 0.625000
v 0.500000 0.000000 0.625000
v 0.625000 0.000000 0.625000
v 0.750000 0.000000 0.625000
v 0.875000 0.000000 0.625000
v 0.125000 0.000000 0.750000
v 0.250000 0.000000 0.750000
v 0.375000 0.000000 0.750000
v 0.500000 0.000000 0.750000
v 0.625000 0.000000 0.750000
v 0.750000 0.000000 0.750000
v 0.875000 0.000000 0.750000
v 0.125000 0.000000 0.875000
v 0.250000 0.000000 0.875000
v 0.375000 0.000000 0.875000
v 0.500000 0.000000 0.875000
v 0.625000 0.000000 0.875000
v 0.750000 0.000000 0.875000
v 0.875000 0.000000 0.875000
s 0
usemtl black
f -152 -88 -81 -96
f -110 -82 -83 -117
f -124 -84 -85 -131
f -138 -86 -87 -145
f -94 -151 -158 -95
f -150 -149 -156 -157
f -148 -147 -154 -155
f -146 -145 -152 -153
f -144 -143 -150 -151
f -142 -141 -148 -149
f -140 -139 -146 -147
f -92 -137 -144 -93
f -136 -135 -142 -143
f -134 -133 -140 -141
f -132 -131 -138 -139
f -130 -129 -136 -137
f -128 -127 -134 -135
f -126 -125 -132 -133
f -90 -123 -130 -91
f -122 -121 -128 -129
f -120 -119 -126 -127
f -118 -117 -124 -125
f -116 -115 -122 -123
f -114 -113 -120 -121
f -112 -111 -118 -119
f -80 -103 -116 -89
f -104 -105 -114 -115
f -106 -107 -112 -113
f -108 -109 -110 -111
f -158 -157 -101 -102
f -156 -155 -99 -100
f -154 -153 -97 -98
