mtllib cornell_box.mtl

o back_wall
v 1.000000 0.000000 1.000000
v 0.000000 0.000000 1.000000
v 0.000000 1.000000 1.000000
v 1.000000 1.000000 1.000000
s 0
usemtl white
f 1 2 3 4

o ceiling
v 1.000000 1.000000 -0.000000
v 1.000000 1.000000 1.000000
v 0.000000 1.000000 1.000000
v 0.000000 1.000000 -0.000000
s 0
usemtl white
f 5 6 7 8

o floor1
v 0.000000 0.000000 0.000000
v 1.000000 0.000000 1.000000
v 0.000000 0.000000 0.125000
v 0.000000 0.000000 0.250000
v 0.000000 0.000000 0.375000
v 0.000000 0.000000 0.500000
v 0.000000 0.000000 0.625000
v 0.000000 0.000000 0.750000
v 0.000000 0.000000 0.875000
v 1.000000 0.000000 0.125000
v 1.000000 0.000000 0.250000
v 1.000000 0.000000 0.375000
v 1.000000 0.000000 0.500000
v 1.000000 0.000000 0.625000
v 1.000000 0.000000 0.750000
v 1.000000 0.000000 0.875000
v 0.125000 0.000000 1.000000
v 0.250000 0.000000 1.000000
v 0.375000 0.000000 1.000000
v 0.500000 0.000000 1.000000
v 0.625000 0.000000 1.000000
v 0.750000 0.000000 1.000000
v 0.875000 0.000000 1.000000
v 0.875000 0.000000 0.000000
v 0.750000 0.000000 0.000000
v 0.625000 0.000000 0.000000
v 0.500000 0.000000 0.000000
v 0.375000 0.000000 0.000000
v 0.250000 0.000000 0.000000
v 0.125000 0.000000 0.000000
v 0.125000 0.000000 0.125000
v 0.250000 0.000000 0.125000
v 0.375000 0.000000 0.125000
v 0.500000 0.000000 0.125000
v 0.625000 0.000000 0.125000
v 0.750000 0.000000 0.125000
v 0.875000 0.000000 0.125000
v 0.125000 0.000000 0.250000
v 0.250000 0.000000 0.250000
v 0.375000 0.000000 0.250000
v 0.500000 0.000000 0.250000
v 0.625000 0.000000 0.250000
v 0.750000 0.000000 0.250000
v 0.875000 0.000000 0.250000
v 0.125000 0.000000 0.375000
v 0.250000 0.000000 0.375000
v 0.375000 0.000000 0.375000
v 0.500000 0.000000 0.375000
v 0.625000 0.000000 0.375000
v 0.750000 0.000000 0.375000
v 0.875000 0.000000 0.375000
v 0.125000 0.000000 0.500000
v 0.250000 0.000000 0.500000
v 0.375000 0.000000 0.500000
v 0.500000 0.000000 0.500000
v 0.625000 0.000000 0.500000
v 0.750000 0.000000 0.500000
v 0.875000 0.000000 0.500000
v 0.125000 0.000000 0.625000
v 0.250000 0.000000 0.625000
v 0.375000 0.000000 0.625000
v 0.500000 0.000000 0.625000
v 0.625000 0.000000 0.625000
v 0.750000 0.000000 0.625000
v 0.875000 0.000000 0.625000
v 0.125000 0.000000 0.750000
v 0.250000 0.000000 0.750000
v 0.375000 0.000000 0.750000
v 0.500000 0.000000 0.750000
v 0.625000 0.000000 0.750000
v 0.750000 0.000000 0.750000
v 0.875000 0.000000 0.750000
v 0.125000 0.000000 0.875000
v 0.250000 0.000000 0.875000
v 0.375000 0.000000 0.875000
v 0.500000 0.000000 0.875000
v 0.625000 0.000000 0.875000
v 0.750000 0.000000 0.875000
v 0.875000 0.000000 0.875000
s 0
usemtl white
f 38 9 11 39
f 46 12 13 53
f 60 14 15 67
f 74 16 17 81
f 80 79 86 87
f 78 77 84 85
f 76 75 82 83
f 22 73 80 23
f 72 71 78 79
f 70 69 76 77
f 68 67 74 75
f 66 65 72 73
f 64 63 70 71
f 62 61 68 69
f 20 59 66 21
f 58 57 64 65
f 56 55 62 63
f 54 53 60 61
f 52 51 58 59
f 50 49 56 57
f 48 47 54 55
f 18 45 52 19
f 44 43 50 51
f 42 41 48 49
f 40 39 46 47
f 32 33 44 45
f 34 35 42 43
f 36 37 40 41
f 24 87 31 10
f 86 85 29 30
f 84 83 27 28
f 82 81 25 26

o front_wall
v 1.000000 1.000000 -0.000000
v 1.000000 0.000000 0.000000
v 0.000000 0.000000 0.000000
v 0.000000 1.000000 -0.000000
s 0
usemtl white
f 91 90 89 88

o green_wall
v 0.000000 0.000000 1.000000
v 0.000000 0.000000 0.000000
v 0.000000 1.000000 -0.000000
v 0.000000 1.000000 1.000000
s 0
usemtl green
f 92 93 94 95
o red_wall
v 1.000000 0.000000 0.000000
v 1.000000 0.000000 1.000000
v 1.000000 1.000000 1.000000
v 1.000000 1.000000 -0.000000
s 0
usemtl red
f 96 97 98 99

o floor2
v 1.000000 0.000000 0.000000
v 0.000000 0.000000 1.000000
v 0.000000 0.000000 0.125000
v 0.000000 0.000000 0.250000
v 0.000000 0.000000 0.375000
v 0.000000 0.000000 0.500000
v 0.000000 0.000000 0.625000
v 0.000000 0.000000 0.750000
v 0.000000 0.000000 0.875000
v 1.000000 0.000000 0.125000
v 1.000000 0.000000 0.250000
v 1.000000 0.000000 0.375000
v 1.000000 0.000000 0.500000
v 1.000000 0.000000 0.625000
v 1.000000 0.000000 0.750000
v 1.000000 0.000000 0.875000
v 0.125000 0.000000 1.000000
v 0.250000 0.000000 1.000000
v 0.375000 0.000000 1.000000
v 0.500000 0.000000 1.000000
v 0.625000 0.000000 1.000000
v 0.750000 0.000000 1.000000
v 0.875000 0.000000 1.000000
v 0.875000 0.000000 0.000000
v 0.750000 0.000000 0.000000
v 0.625000 0.000000 0.000000
v 0.500000 0.000000 0.000000
v 0.375000 0.000000 0.000000
v 0.250000 0.000000 0.000000
v 0.125000 0.000000 0.000000
v 0.125000 0.000000 0.125000
v 0.250000 0.000000 0.125000
v 0.375000 0.000000 0.125000
v 0.500000 0.000000 0.125000
v 0.625000 0.000000 0.125000
v 0.750000 0.000000 0.125000
v 0.875000 0.000000 0.125000
v 0.125000 0.000000 0.250000
v 0.250000 0.000000 0.250000
v 0.375000 0.000000 0.250000
v 0.500000 0.000000 0.250000
v 0.625000 0.000000 0.250000
v 0.750000 0.000000 0.250000
v 0.875000 0.000000 0.250000
v 0.125000 0.000000 0.375000
v 0.250000 0.000000 0.375000
v 0.375000 0.000000 0.375000
v 0.500000 0.000000 0.375000
v 0.625000 0.000000 0.375000
v 0.750000 0.000000 0.375000
v 0.875000 0.000000 0.375000
v 0.125000 0.000000 0.500000
v 0.250000 0.000000 0.500000
v 0.375000 0.000000 0.500000
v 0.500000 0.000000 0.500000
v 0.625000 0.000000 0.500000
v 0.750000 0.000000 0.500000
v 0.875000 0.000000 0.500000
v 0.125000 0.000000 0.625000
v 0.250000 0.000000 0.625000
v 0.375000 0.000000 0.625000
v 0.500000 0.000000 0.625000
v 0.625000 0.000000 0.625000
v 0.750000 0.000000 0.625000
v 0.875000 0.000000 0.625000
v 0.125000 0.000000 0.750000
v 0.250000 0.000000 0.750000
v 0.375000 0.000000 0.750000
v 0.500000 0.000000 0.750000
v 0.625000 0.000000 0.750000
v 0.750000 0.000000 0.750000
v 0.875000 0.000000 0.750000
v 0.125000 0.000000 0.875000
v 0.250000 0.000000 0.875000
v 0.375000 0.000000 0.875000
v 0.500000 0.000000 0.875000
v 0.625000 0.000000 0.875000
v 0.750000 0.000000 0.875000
v 0.875000 0.000000 0.875000
s 0
usemtl black
f 118 117 116 115
f 172 108 101 116
f 130 102 103 137
f 144 104 105 151
f 158 106 107 165
f 114 171 178 115
f 170 169 176 177
f 168 167 174 175
f 166 165 172 173
f 164 163 170 171
f 162 161 168 169
f 160 159 166 167
f 112 157 164 113
f 156 155 162 163
f 154 153 160 161
f 152 151 158 159
f 150 149 156 157
f 148 147 154 155
f 146 145 152 153
f 110 143 150 111
f 142 141 148 149
f 140 139 146 147
f 138 137 144 145
f 136 135 142 143
f 134 133 140 141
f 132 131 138 139
f 100 123 136 109
f 124 125 134 135
f 126 127 132 133
f 128 129 130 131
f 178 177 121 122
f 176 175 119 120
f 174 173 117 118
