mtllib cornell_box.mtl

o red
v 0.367840 0.132160 0.500000
v 0.367840 0.867840 0.500000
v 0.500000 0.000000 -0.500000
v 0.500000 1.000000 -0.500000
vn -0.9914 -0.0000 -0.1310
s 0
usemtl red
f 3//1 1//1 2//1 4//1
o white_checkers
v -0.500000 0.000000 -0.500000
v 0.367840 0.132160 0.500000
v 0.375000 0.000000 -0.500000
v 0.250000 0.000000 -0.500000
v 0.125000 0.000000 -0.500000
v 0.000000 0.000000 -0.500000
v -0.125000 0.000000 -0.500000
v -0.250000 0.000000 -0.500000
v -0.375000 0.000000 -0.500000
v -0.275880 0.132160 0.500000
v -0.183920 0.132160 0.500000
v -0.091960 0.132160 0.500000
v 0.000000 0.132160 0.500000
v 0.091960 0.132160 0.500000
v 0.183920 0.132160 0.500000
v 0.275880 0.132160 0.500000
v -0.483480 0.016520 -0.375000
v -0.466960 0.033040 -0.250000
v -0.450440 0.049560 -0.125000
v -0.433920 0.066080 0.000000
v -0.417400 0.082600 0.125000
v -0.400880 0.099120 0.250000
v -0.384360 0.115640 0.375000
v 0.384360 0.115640 0.375000
v 0.400880 0.099120 0.250000
v 0.417400 0.082600 0.125000
v 0.433920 0.066080 0.000000
v 0.450440 0.049560 -0.125000
v 0.466960 0.033040 -0.250000
v 0.483480 0.016520 -0.375000
v -0.288270 0.115640 0.375000
v -0.300660 0.099120 0.250000
v -0.313050 0.082600 0.125000
v -0.325440 0.066080 0.000000
v -0.337830 0.049560 -0.125000
v -0.350220 0.033040 -0.250000
v -0.362610 0.016520 -0.375000
v -0.192180 0.115640 0.375000
v -0.200440 0.099120 0.250000
v -0.208700 0.082600 0.125000
v -0.216960 0.066080 0.000000
v -0.225220 0.049560 -0.125000
v -0.233480 0.033040 -0.250000
v -0.241740 0.016520 -0.375000
v -0.096090 0.115640 0.375000
v -0.100220 0.099120 0.250000
v -0.104350 0.082600 0.125000
v -0.108480 0.066080 0.000000
v -0.112610 0.049560 -0.125000
v -0.116740 0.033040 -0.250000
v -0.120870 0.016520 -0.375000
v 0.000000 0.115640 0.375000
v 0.000000 0.099120 0.250000
v 0.000000 0.082600 0.125000
v 0.000000 0.066080 0.000000
v 0.000000 0.049560 -0.125000
v 0.000000 0.033040 -0.250000
v 0.000000 0.016520 -0.375000
v 0.096090 0.115640 0.375000
v 0.100220 0.099120 0.250000
v 0.104350 0.082600 0.125000
v 0.108480 0.066080 0.000000
v 0.112610 0.049560 -0.125000
v 0.116740 0.033040 -0.250000
v 0.120870 0.016520 -0.375000
v 0.192180 0.115640 0.375000
v 0.200440 0.099120 0.250000
v 0.208700 0.082600 0.125000
v 0.216960 0.066080 0.000000
v 0.225220 0.049560 -0.125000
v 0.233480 0.033040 -0.250000
v 0.241740 0.016520 -0.375000
v 0.288270 0.115640 0.375000
v 0.300660 0.099120 0.250000
v 0.313050 0.082600 0.125000
v 0.325440 0.066080 0.000000
v 0.337830 0.049560 -0.125000
v 0.350220 0.033040 -0.250000
v 0.362610 0.016520 -0.375000
vn -0.0000 0.9914 -0.1310
s 0
usemtl white

f 77//2 20//2 6//2 28//2
f 35//2 14//2 15//2 42//2
f 49//2 16//2 17//2 56//2
f 63//2 18//2 19//2 70//2
f 8//2 76//2 83//2 7//2
f 75//2 74//2 81//2 82//2
f 73//2 72//2 79//2 80//2
f 71//2 70//2 77//2 78//2
f 69//2 68//2 75//2 76//2
f 67//2 66//2 73//2 74//2
f 65//2 64//2 71//2 72//2
f 10//2 62//2 69//2 9//2
f 61//2 60//2 67//2 68//2
f 59//2 58//2 65//2 66//2
f 57//2 56//2 63//2 64//2
f 55//2 54//2 61//2 62//2
f 53//2 52//2 59//2 60//2
f 51//2 50//2 57//2 58//2
f 12//2 48//2 55//2 11//2
f 47//2 46//2 53//2 54//2
f 45//2 44//2 51//2 52//2
f 43//2 42//2 49//2 50//2
f 41//2 40//2 47//2 48//2
f 39//2 38//2 45//2 46//2
f 37//2 36//2 43//2 44//2
f 5//2 21//2 41//2 13//2
f 22//2 23//2 39//2 40//2
f 24//2 25//2 37//2 38//2
f 26//2 27//2 35//2 36//2
f 83//2 82//2 33//2 34//2
f 81//2 80//2 31//2 32//2
f 79//2 78//2 29//2 30//2
o black_checkers
v -0.367840 0.132160 0.500000
v 0.500000 0.000000 -0.500000
v 0.375000 0.000000 -0.500000
v 0.250000 0.000000 -0.500000
v 0.125000 0.000000 -0.500000
v 0.000000 0.000000 -0.500000
v -0.125000 0.000000 -0.500000
v -0.250000 0.000000 -0.500000
v -0.375000 0.000000 -0.500000
v -0.275880 0.132160 0.500000
v -0.183920 0.132160 0.500000
v -0.091960 0.132160 0.500000
v 0.000000 0.132160 0.500000
v 0.091960 0.132160 0.500000
v 0.183920 0.132160 0.500000
v 0.275880 0.132160 0.500000
v -0.483480 0.016520 -0.375000
v -0.466960 0.033040 -0.250000
v -0.450440 0.049560 -0.125000
v -0.433920 0.066080 0.000000
v -0.417400 0.082600 0.125000
v -0.400880 0.099120 0.250000
v -0.384360 0.115640 0.375000
v 0.384360 0.115640 0.375000
v 0.400880 0.099120 0.250000
v 0.417400 0.082600 0.125000
v 0.433920 0.066080 0.000000
v 0.450440 0.049560 -0.125000
v 0.466960 0.033040 -0.250000
v 0.483480 0.016520 -0.375000
v -0.288270 0.115640 0.375000
v -0.300660 0.099120 0.250000
v -0.313050 0.082600 0.125000
v -0.325440 0.066080 0.000000
v -0.337830 0.049560 -0.125000
v -0.350220 0.033040 -0.250000
v -0.362610 0.016520 -0.375000
v -0.192180 0.115640 0.375000
v -0.200440 0.099120 0.250000
v -0.208700 0.082600 0.125000
v -0.216960 0.066080 0.000000
v -0.225220 0.049560 -0.125000
v -0.233480 0.033040 -0.250000
v -0.241740 0.016520 -0.375000
v -0.096090 0.115640 0.375000
v -0.100220 0.099120 0.250000
v -0.104350 0.082600 0.125000
v -0.108480 0.066080 0.000000
v -0.112610 0.049560 -0.125000
v -0.116740 0.033040 -0.250000
v -0.120870 0.016520 -0.375000
v 0.000000 0.115640 0.375000
v 0.000000 0.099120 0.250000
v 0.000000 0.082600 0.125000
v 0.000000 0.066080 0.000000
v 0.000000 0.049560 -0.125000
v 0.000000 0.033040 -0.250000
v 0.000000 0.016520 -0.375000
v 0.096090 0.115640 0.375000
v 0.100220 0.099120 0.250000
v 0.104350 0.082600 0.125000
v 0.108480 0.066080 0.000000
v 0.112610 0.049560 -0.125000
v 0.116740 0.033040 -0.250000
v 0.120870 0.016520 -0.375000
v 0.192180 0.115640 0.375000
v 0.200440 0.099120 0.250000
v 0.208700 0.082600 0.125000
v 0.216960 0.066080 0.000000
v 0.225220 0.049560 -0.125000
v 0.233480 0.033040 -0.250000
v 0.241740 0.016520 -0.375000
v 0.288270 0.115640 0.375000
v 0.300660 0.099120 0.250000
v 0.313050 0.082600 0.125000
v 0.325440 0.066080 0.000000
v 0.337830 0.049560 -0.125000
v 0.350220 0.033040 -0.250000
v 0.362610 0.016520 -0.375000
vn -0.0000 0.9914 -0.1310
s 0
usemtl black
f 106//3 84//3 93//3 114//3
f 121//3 94//3 95//3 128//3
f 135//3 96//3 97//3 142//3
f 149//3 98//3 99//3 156//3
f 155//3 154//3 161//3 162//3
f 153//3 152//3 159//3 160//3
f 151//3 150//3 157//3 158//3
f 88//3 148//3 155//3 87//3
f 147//3 146//3 153//3 154//3
f 145//3 144//3 151//3 152//3
f 143//3 142//3 149//3 150//3
f 141//3 140//3 147//3 148//3
f 139//3 138//3 145//3 146//3
f 137//3 136//3 143//3 144//3
f 90//3 134//3 141//3 89//3
f 133//3 132//3 139//3 140//3
f 131//3 130//3 137//3 138//3
f 129//3 128//3 135//3 136//3
f 127//3 126//3 133//3 134//3
f 125//3 124//3 131//3 132//3
f 123//3 122//3 129//3 130//3
f 92//3 120//3 127//3 91//3
f 119//3 118//3 125//3 126//3
f 117//3 116//3 123//3 124//3
f 115//3 114//3 121//3 122//3
f 100//3 101//3 119//3 120//3
f 102//3 103//3 117//3 118//3
f 104//3 105//3 115//3 116//3
f 86//3 162//3 113//3 85//3
f 161//3 160//3 111//3 112//3
f 159//3 158//3 109//3 110//3
f 157//3 156//3 107//3 108//3
o green
v -0.367840 0.132160 0.500000
v -0.367840 0.867840 0.500000
v -0.500000 0.000000 -0.500000
v -0.500000 1.000000 -0.500000
vn 0.9914 -0.0000 -0.1310
s 0
usemtl green
f 163//4 165//4 166//4 164//4
o back
v -0.367840 0.132160 0.500000
v -0.367840 0.867840 0.500000
v 0.367840 0.132160 0.500000
v 0.367840 0.867840 0.500000
vn -0.0000 -0.0000 -1.0000
s 0
usemtl back_wall
f 169//5 167//5 168//5 170//5
o front
v -0.500000 0.000000 -0.500000
v -0.500000 1.000000 -0.500000
v 0.500000 0.000000 -0.500000
v 0.500000 1.000000 -0.500000
vn -0.0000 -0.0000 1.0000
s 0
usemtl white
f 171//6 173//6 174//6 172//6
o top
v -0.367840 0.867840 0.500000
v -0.500000 1.000000 -0.500000
v 0.367840 0.867840 0.500000
v 0.500000 1.000000 -0.500000
vn -0.0000 -0.9914 -0.1310
s 0
usemtl white
f 178//7 177//7 175//7 176//7
